<svg width="100" height="101" fill="none" xmlns="http://www.w3.org/2000/svg">
    <g opacity=".2" fill="#E0545F">
        <path d="M56.25 18.115H45.312c-8.615 0-15.624 7.01-15.624 15.625v11.534c-.961 1.099-1.563 2.519-1.563 4.09a6.256 6.256 0 0 0 6.25 6.25h.316c.904 4.435 3.7 8.182 7.496 10.387v2.497l-10.224 2.921c-6.86 1.96-11.65 8.311-11.65 15.446v10.937c0 .864.7 1.563 1.562 1.563h56.25c.862 0 1.563-.699 1.563-1.563V86.865c0-7.135-4.791-13.486-11.65-15.446l-10.225-2.921V66c3.796-2.205 6.593-5.952 7.496-10.386h.316a6.256 6.256 0 0 0 6.25-6.25c0-1.57-.602-2.99-1.563-4.09v-13.1c0-3.816-2.754-7.004-6.38-7.679-.676-3.627-3.863-6.381-7.682-6.381Zm-25 31.25a3.128 3.128 0 0 1 3.125-3.125v6.25a3.128 3.128 0 0 1-3.125-3.125Zm25.155 21.983 4.153 1.187-4.308 4.308-3.612-3.613 3.767-1.882ZM48.289 83.74h3.422l1.248 12.5h-5.922l1.252-12.5Zm3.87-3.125h-4.318l-1.149-2.296L50 75.012l3.308 3.307-1.149 2.296Zm-8.409-3.772-4.308-4.31 4.153-1.187 3.767 1.883-3.612 3.614ZM23.437 86.865c0-5.747 3.858-10.861 9.383-12.44l3.185-.909 6.64 6.64c.292.295.69.459 1.105.459.188 0 .37-.044.542-.108l.983 1.966-1.378 13.767H32.813v-7.813h-3.126v7.813h-6.25v-9.375Zm53.126 0v9.375h-6.25v-7.813h-3.126v7.813H56.1l-1.375-13.767.983-1.966c.172.064.355.108.542.108.414 0 .813-.164 1.105-.458l6.64-6.64 3.185.909c5.525 1.578 9.382 6.692 9.382 12.439ZM54.686 68.712 50 71.055l-4.688-2.343v-1.318a15.6 15.6 0 0 0 9.376 0v1.318ZM62.5 52.49c0 6.892-5.608 12.5-12.5 12.5s-12.5-5.608-12.5-12.5v-7.813h7.21c4.977 0 9.465-2.581 11.968-6.737l5.822 5.822v8.728Zm3.125 0v-6.25a3.128 3.128 0 0 1 3.125 3.125 3.128 3.128 0 0 1-3.125 3.125Zm1.563-20.314v11.16a6.157 6.157 0 0 0-1.563-.221c0-.416-.164-.813-.458-1.105l-7.812-7.812a1.569 1.569 0 0 0-1.42-.425 1.558 1.558 0 0 0-1.135.95 10.816 10.816 0 0 1-10.09 6.83h-8.773c-.862 0-1.562.698-1.562 1.562-.542 0-1.06.09-1.563.222V33.74c0-6.892 5.608-12.5 12.5-12.5H56.25a4.693 4.693 0 0 1 4.688 4.687c0 .864.7 1.563 1.562 1.563a4.692 4.692 0 0 1 4.688 4.686ZM31.556 11.896l-6.983-1.397-2.812-7.026a1.561 1.561 0 0 0-2.902 0l-2.809 7.026-6.981 1.397a1.56 1.56 0 0 0-.799 2.636l4.097 4.097-1.398 6.992a1.563 1.563 0 0 0 2.336 1.647l7.008-4.206 7.007 4.204a1.553 1.553 0 0 0 1.705-.062c.505-.356.753-.977.631-1.585l-1.398-6.992 4.097-4.097a1.562 1.562 0 0 0-.799-2.634Zm-6.098 5.114a1.56 1.56 0 0 0-.427 1.411l.87 4.348-4.784-2.87a1.568 1.568 0 0 0-1.61.002l-4.784 2.87.87-4.348a1.56 1.56 0 0 0-.426-1.411l-2.623-2.625 4.95-.991c.517-.103.948-.46 1.143-.952l1.675-4.186 1.675 4.186c.196.491.627.849 1.144.952l4.95.99-2.623 2.624ZM21.07 55.391a1.553 1.553 0 0 0 1.705-.062c.505-.356.753-.977.631-1.585l-1.398-6.992 4.097-4.097a1.562 1.562 0 0 0-.799-2.636l-6.983-1.396-2.812-7.027a1.562 1.562 0 0 0-2.902.002L9.8 38.624l-6.981 1.397a1.56 1.56 0 0 0-.798 2.636l4.096 4.097-1.398 6.992a1.563 1.563 0 0 0 2.336 1.647l7.008-4.206 7.007 4.204ZM8.475 50.894l.87-4.348a1.56 1.56 0 0 0-.426-1.41l-2.624-2.624 4.95-.991a1.56 1.56 0 0 0 1.144-.952l1.674-4.186 1.675 4.186c.195.491.626.849 1.143.952l4.95.99-2.623 2.624a1.56 1.56 0 0 0-.427 1.411l.87 4.348-4.784-2.87a1.568 1.568 0 0 0-1.61.002l-4.782 2.868ZM92.12 12.974a1.56 1.56 0 0 0-1.189-1.078l-6.983-1.397-2.807-7.026a1.563 1.563 0 0 0-2.902 0l-2.812 7.026-6.983 1.397a1.56 1.56 0 0 0-.798 2.636l4.096 4.097-1.398 6.992a1.563 1.563 0 0 0 2.336 1.647l7.007-4.206 7.008 4.204a1.553 1.553 0 0 0 1.705-.062c.505-.356.753-.977.631-1.585l-1.398-6.992 4.097-4.097a1.558 1.558 0 0 0 .39-1.556Zm-7.287 4.036a1.56 1.56 0 0 0-.427 1.411l.87 4.348-4.784-2.87a1.568 1.568 0 0 0-1.61.002L74.1 22.77l.87-4.348a1.56 1.56 0 0 0-.427-1.411l-2.623-2.624 4.95-.99a1.562 1.562 0 0 0 1.144-.952l1.674-4.188 1.674 4.186c.195.491.626.849 1.144.952l4.95.99-2.622 2.624ZM97.181 40.021l-6.983-1.397-2.809-7.026a1.56 1.56 0 0 0-2.9 0l-2.812 7.026-6.983 1.397a1.56 1.56 0 0 0-.798 2.636l4.096 4.097-1.398 6.992a1.563 1.563 0 0 0 2.336 1.647l7.007-4.206 7.008 4.204a1.553 1.553 0 0 0 1.705-.062c.505-.356.753-.977.631-1.585l-1.398-6.992 4.097-4.097a1.562 1.562 0 0 0-.799-2.634Zm-6.098 5.114a1.56 1.56 0 0 0-.427 1.411l.87 4.348-4.784-2.87a1.568 1.568 0 0 0-1.61.002l-4.783 2.87.87-4.348a1.56 1.56 0 0 0-.427-1.411l-2.623-2.624 4.95-.99a1.562 1.562 0 0 0 1.144-.952l1.674-4.188 1.674 4.186c.195.491.626.849 1.144.952l4.95.99-2.622 2.624Z"/>
    </g>
</svg>
