<svg width="40" height="41" fill="none" xmlns="http://www.w3.org/2000/svg">
    <path d="M27.336 36.136v-1.519A3.037 3.037 0 0 0 24.3 31.58H5.315a3.037 3.037 0 0 0-3.037 3.037v1.52a2.278 2.278 0 1 0 0 4.555h25.058a2.278 2.278 0 0 0 0-4.556Zm-23.54-1.519a1.519 1.519 0 0 1 1.52-1.518h18.983a1.519 1.519 0 0 1 1.518 1.518v1.52H3.797v-1.52Zm23.54 4.556H2.278a.76.76 0 0 1 0-1.518h25.058a.76.76 0 1 1 0 1.518Z" fill="#E0545F"/>
    <path d="M39.334 32.764 23.76 17.19l3.318-3.318c.316.159.664.242 1.017.243a2.278 2.278 0 0 0 1.61-3.888l-8.626-8.61a2.278 2.278 0 0 0-3.66 2.627l-3.318 3.318-1.618-1.648a2.278 2.278 0 0 0-1.594-.66 2.225 2.225 0 0 0-1.625.66 2.278 2.278 0 0 0-.668 1.61c0 .604.24 1.183.668 1.61l1.61 1.617-3.326 3.364a2.347 2.347 0 0 0-2.582.425 2.278 2.278 0 0 0 0 3.228l8.596 8.55a2.278 2.278 0 0 0 3.66-2.582l3.318-3.326 15.574 15.574A2.278 2.278 0 0 0 40 34.374c0-.603-.24-1.182-.666-1.61ZM22.15 16.651l-1.07 1.079-4.838 4.829-7.517-7.517 3.796-3.76 1.079-1.07 4.829-4.837 3.797 3.797 3.758 3.759-3.758 3.758-.076-.038ZM18.93 2.725a.76.76 0 0 1 1.07 0l8.597 8.558a.762.762 0 1 1-1.079 1.078L18.93 3.765a.76.76 0 0 1 0-1.04ZM10.342 8.04a.76.76 0 0 1-.228-.539.76.76 0 0 1 .228-.531.706.706 0 0 1 .532-.22.76.76 0 0 1 .524.22l1.61 1.61-.54.531-.531.54-1.595-1.61Zm5.369 17.184a.758.758 0 0 1-1.079 0l-8.557-8.573a.76.76 0 0 1 0-1.07.76.76 0 0 1 1.07 0l8.566 8.588a.762.762 0 0 1 0 1.078v-.023Zm22.544 9.682a.76.76 0 0 1-1.07 0L21.61 19.339l.539-.539.539-.539 15.566 15.597a.76.76 0 0 1 0 1.048Z" fill="#E0545F"/>
</svg>
