<svg width="169" height="45" fill="none" xmlns="http://www.w3.org/2000/svg">
    <path d="M153.197 19.18v10.215c0 2.094 1.619 3.532 3.769 3.532 2.185 0 3.769-1.776 3.769-3.532 0-1.734-1.515-3.53-3.769-3.53-.543 0-1.052.092-1.515.246-.208-.432-.924-2.002-1.052-2.3a7.72 7.72 0 0 1 2.567-.41c3.977 0 6.925 2.76 6.925 5.994 0 3.378-3.156 6.016-6.925 6.016-3.827 0-6.902-2.67-6.902-6.016V19.182l3.133-.001Zm-11.45 4.22c.543 0 1.029.04 1.491.134l.255.04c.081.02.185.042.254.073 2.844.729 4.925 3.028 4.925 5.769 0 .164-.023.318-.023.482a4.92 4.92 0 0 1-.312 1.304c-1.156-.503-2.439-.75-3.804-.75-1.364 0-2.647.247-3.85.73v-2.67c1.25-.32 2.536-.483 3.827-.482.231 0 .439.02.671.02-.486-.974-1.723-1.91-3.434-1.91-2.081 0-3.769 1.48-3.769 3.286 0 1.827 1.746 3.254 3.769 3.254 1.052 0 1.954-.318 2.694-.975l2.15 2.074c-1.202 1.006-2.902 1.642-4.856 1.642-3.896 0-6.902-2.73-6.902-5.995 0-3.367 3.087-6.025 6.914-6.025Zm-34.615-3.941h3.006v9.382c0 2.074 1.896 3.89 4.382 3.89 2.439 0 4.382-1.724 4.382-3.89v-9.382h3.006v9.382c0 2.074 1.872 3.89 4.358 3.89 2.439 0 4.382-1.724 4.382-3.89v-9.382h3.006v9.382c0 3.685-3.353 6.57-7.388 6.57-2.393 0-4.509-.986-5.861-2.587-1.376 1.612-3.492 2.587-5.885 2.587-4.093 0-7.388-2.926-7.388-6.57v-9.382ZM98.231 23.4c.544 0 1.03.04 1.492.133l.254.04c.081.02.185.042.254.073 2.845.729 4.926 3.028 4.926 5.769 0 .164-.024.318-.024.482a4.92 4.92 0 0 1-.312 1.304c-1.156-.503-2.439-.75-3.803-.75a10.232 10.232 0 0 0-3.85.73v-2.67a15.38 15.38 0 0 1 3.827-.482c.231 0 .439.02.67.02-.485-.974-1.722-1.91-3.434-1.91-2.08 0-3.77 1.48-3.77 3.286 0 1.827 1.747 3.254 3.77 3.254 1.053 0 1.954-.318 2.694-.975.544.524 1.468 1.417 2.151 2.074-1.203 1.006-2.902 1.642-4.856 1.642-3.896 0-6.902-2.73-6.902-5.995 0-3.367 3.087-6.025 6.913-6.025ZM86.615 35.41V19.459h3.156V35.41h-3.156Zm-7.561-13.703h3.133v3.664h1.85v2.73h-1.85v2.35c0 1.213 1.133 2.208 2.486 2.208h.775v2.73h-.775c-3.11 0-5.62-2.278-5.62-5.008v-8.674Zm-7.564 0h3.133v3.664h1.85v2.73h-1.85v2.35c0 1.213 1.133 2.208 2.485 2.208h.775v2.73h-.775c-3.11 0-5.618-2.278-5.618-5.008v-8.674Zm-1.84 2.308V35.41h-3.133V24.016h3.133Z" fill="#595857"/>
    <path fill-rule="evenodd" clip-rule="evenodd" d="m69.98 20.208-2.157 1.862-1.693-1.546 2.157-1.862 1.693 1.546Z" fill="#F09926"/>
    <path d="M54.933 19.48h3.133v8.95c0 2.485 2.544 4.188 5.7 4.188h1.514V35.4h-1.722c-4.775 0-8.625-3.05-8.625-6.836V19.48ZM60.634 14.302c-.98 0-1.867-.215-2.66-.644a4.871 4.871 0 0 1-1.848-1.792c-.448-.765-.672-1.624-.672-2.576s.224-1.806.672-2.562a4.713 4.713 0 0 1 1.862-1.792c.793-.439 1.68-.658 2.66-.658.765 0 1.465.13 2.1.392a4.23 4.23 0 0 1 1.624 1.134l-.91.882c-.737-.775-1.657-1.162-2.758-1.162-.728 0-1.386.163-1.974.49-.588.327-1.05.78-1.386 1.358-.33.585-.5 1.247-.49 1.918 0 .71.163 1.353.49 1.932a3.62 3.62 0 0 0 1.386 1.344c.588.327 1.246.49 1.974.49 1.092 0 2.01-.392 2.758-1.176l.91.882c-.45.505-1.01.898-1.638 1.148-.668.268-1.381.401-2.1.392Zm8.306-.028c-.737 0-1.4-.163-1.988-.49a3.62 3.62 0 0 1-1.386-1.344c-.326-.579-.49-1.232-.49-1.96s.164-1.377.49-1.946a3.49 3.49 0 0 1 1.386-1.344c.588-.327 1.25-.49 1.988-.49s1.396.163 1.974.49a3.397 3.397 0 0 1 1.372 1.344c.336.57.504 1.218.504 1.946s-.168 1.381-.504 1.96a3.519 3.519 0 0 1-1.372 1.344c-.578.327-1.236.49-1.974.49Zm0-1.176c.476 0 .9-.107 1.274-.322.378-.22.688-.539.896-.924.22-.423.33-.895.322-1.372 0-.513-.107-.966-.322-1.358a2.25 2.25 0 0 0-.896-.924 2.51 2.51 0 0 0-1.274-.322c-.476 0-.905.107-1.288.322-.378.22-.689.54-.896.924-.214.392-.322.845-.322 1.358 0 .513.108.97.322 1.372.224.392.523.7.896.924.383.215.812.322 1.288.322Zm9.727-2.772c.495.13.877.34 1.148.63.27.29.406.65.406 1.078 0 .44-.15.83-.448 1.176-.3.336-.714.602-1.246.798-.523.187-1.11.28-1.764.28-.55 0-1.092-.07-1.624-.21a5.04 5.04 0 0 1-1.4-.63l.406-1.022c.355.224.76.401 1.218.532a5.4 5.4 0 0 0 1.386.182c.635 0 1.139-.107 1.512-.322.383-.224.574-.523.574-.896 0-.345-.154-.61-.462-.798-.3-.187-.723-.28-1.274-.28H75.74v-.966H77c.504 0 .9-.089 1.19-.266.29-.177.434-.42.434-.728 0-.336-.173-.597-.518-.784-.336-.187-.793-.28-1.372-.28-.737 0-1.517.191-2.338.574l-.364-1.036a6.224 6.224 0 0 1 2.842-.686c.597 0 1.134.084 1.61.252.476.168.85.406 1.12.714.27.308.406.658.406 1.05 0 .364-.121.69-.364.98-.243.29-.57.51-.98.658ZM89.32 6.77v6.412c0 1.297-.322 2.254-.966 2.87-.644.625-1.605.938-2.884.938-.7 0-1.367-.098-2.002-.294-.634-.187-1.148-.457-1.54-.812l.644-1.036c.346.3.77.532 1.274.7a4.826 4.826 0 0 0 1.582.266c.868 0 1.508-.205 1.918-.616.42-.41.63-1.036.63-1.876v-.588c-.315.382-.72.68-1.176.868-.457.187-.956.28-1.498.28a4.15 4.15 0 0 1-1.932-.448 3.464 3.464 0 0 1-1.344-1.274c-.326-.55-.49-1.176-.49-1.876s.164-1.32.49-1.862c.327-.55.775-.975 1.344-1.274a4.15 4.15 0 0 1 1.932-.448c.56 0 1.078.103 1.554.308.486.205.882.51 1.19.91V6.77h1.274Zm-3.864 5.936c.486 0 .92-.103 1.302-.308.392-.205.696-.49.91-.854.226-.38.342-.817.336-1.26 0-.719-.238-1.297-.714-1.736-.476-.448-1.087-.672-1.834-.672-.756 0-1.372.224-1.848.672-.476.44-.714 1.017-.714 1.736 0 .467.108.887.322 1.26.224.364.528.65.91.854.392.205.836.308 1.33.308Zm13.46-5.936v7.42h-1.288v-1.176a2.91 2.91 0 0 1-1.134.938c-.474.219-.99.329-1.512.322-.72 0-1.363-.159-1.932-.476a3.473 3.473 0 0 1-1.344-1.33c-.317-.579-.476-1.24-.476-1.988 0-.747.159-1.405.476-1.974.316-.559.781-1.02 1.344-1.33.57-.317 1.213-.476 1.932-.476a3.49 3.49 0 0 1 1.47.308c.448.196.82.49 1.12.882V6.77h1.344Zm-3.822 6.328c.467 0 .89-.107 1.274-.322.383-.224.68-.532.896-.924.22-.423.33-.895.322-1.372 0-.513-.107-.966-.322-1.358a2.25 2.25 0 0 0-.896-.924 2.559 2.559 0 0 0-1.274-.322c-.476 0-.905.107-1.288.322-.378.22-.688.54-.896.924-.215.392-.322.845-.322 1.358 0 .513.107.97.322 1.372.224.392.523.7.896.924.383.215.812.322 1.288.322Zm6.393-6.328h1.344v3.15h4.228V6.77h1.344v7.42h-1.344v-3.108h-4.228v3.108h-1.344V6.77Zm12.707 7.504c-.737 0-1.4-.163-1.988-.49a3.623 3.623 0 0 1-1.386-1.344c-.326-.579-.49-1.232-.49-1.96s.164-1.377.49-1.946a3.488 3.488 0 0 1 1.386-1.344c.588-.327 1.251-.49 1.988-.49.738 0 1.396.163 1.974.49a3.392 3.392 0 0 1 1.372 1.344c.336.57.504 1.218.504 1.946s-.168 1.381-.504 1.96a3.518 3.518 0 0 1-1.372 1.344c-.578.327-1.236.49-1.974.49Zm0-1.176c.476 0 .901-.107 1.274-.322.383-.224.682-.532.896-.924.22-.423.331-.895.322-1.372 0-.513-.107-.966-.322-1.358a2.247 2.247 0 0 0-.896-.924 2.506 2.506 0 0 0-1.274-.322c-.476 0-.905.107-1.288.322-.378.22-.688.54-.896.924-.214.392-.322.845-.322 1.358 0 .513.108.97.322 1.372.224.392.523.7.896.924.383.215.812.322 1.288.322Zm14.605-2.758c.961.243 1.442.845 1.442 1.806 0 .653-.248 1.157-.742 1.512-.486.355-1.214.532-2.184.532h-3.57V6.77h3.444c.877 0 1.563.168 2.058.504.494.327.742.793.742 1.4 0 .392-.108.733-.322 1.022a1.935 1.935 0 0 1-.868.644Zm-3.738-.378h2.016c.513 0 .9-.093 1.162-.28.27-.187.406-.457.406-.812 0-.71-.523-1.064-1.568-1.064h-2.016v2.156Zm2.156 3.192c.56 0 .98-.089 1.26-.266.28-.177.42-.453.42-.826 0-.383-.131-.667-.392-.854-.252-.187-.654-.28-1.204-.28h-2.24v2.226h2.156Z" fill="#595857"/>
    <path fill-rule="evenodd" clip-rule="evenodd" d="M38.78 10.411c-9.546-5.788-18.907-2.303-21.94-.32-4.32 2.823-7.158 6.517-7.08 11.893l.02 1.217 2.774-.031-.018-1.218c-.065-4.423 2.18-7.438 5.963-9.91 2.45-1.6 10.472-4.62 18.705.372l.002.001c2.925 1.766 4.688 4.601 5.61 8.08.495 1.847.619 5.058-.354 7.743-.48 1.329-1.202 2.449-2.187 3.226-.958.756-2.242 1.25-4.026 1.242-1.57-.008-2.604-.766-3.31-1.657a6.154 6.154 0 0 1-.962-1.75l-.006-.02-.264-.907-2.551-.013-.317.832v.002l-.01.02a5.82 5.82 0 0 1-.237.489c-.233.427-.51.827-.83 1.194-.757.864-1.78 1.542-3.168 1.507-2.085-.05-3.608-.998-4.54-2.68v-.004a7.88 7.88 0 0 1-.7-1.682c3.295-1.45 4.998-3.778 5.864-5.75.458-1.042.688-1.993.804-2.687.06-.358.1-.72.12-1.082v-.105c0-.002 0-.002-1.385-.007l1.387.005.004-.882-6.025-1.756-.59.764-.002.004-.005.006-.016.021c-.081.107-.16.216-.235.327a18.8 18.8 0 0 0-2.14 4.166c-.558 1.551-.982 3.443-.842 5.446-2.79.791-4.943.485-6.428-.018a8.547 8.547 0 0 1-1.984-.966 6.098 6.098 0 0 1-.594-.448l-.017-.016-.001-.001-.924-.898-2.06 1.63.93.904 1.03-.815-1.03.817h.003l.002.004.007.006.02.018c.08.076.165.15.25.22.166.134.4.316.707.518.608.405 1.5.904 2.66 1.298 1.97.667 4.643 1.008 7.89.17.198.62.463 1.24.806 1.857 1.332 2.405 3.724 3.971 6.956 4.05 2.635.066 4.41-1.275 5.446-2.456.124-.14.24-.282.346-.421.108.158.225.319.353.48 1.01 1.274 2.784 2.686 5.573 2.7 2.447.012 4.405-.689 5.896-1.865 1.464-1.155 2.399-2.704 2.977-4.3 1.146-3.165 1.002-6.828.412-9.034-1.018-3.834-3.054-7.306-6.738-9.53ZM17.56 30.787v-.002l1.247-.531-1.246.534-.001-.001ZM6.245 25.879c1.03-.816 1.029-.817 1.029-.817v.002l-1.03.815Zm10.509 3.051c-.25-.786-.405-1.6-.461-2.423l.16 1.244.3 1.179Zm8.003-10.483c.045-.268-.016.23 0-.041l-1.388-.005V18.4l1.388.006v.041Zm-1.482.81a9.234 9.234 0 0 1-.646 2.154 8.41 8.41 0 0 1-3.582 3.978c.044-1.267.338-2.492.735-3.593a16.508 16.508 0 0 1 1.522-3.114l1.97.575Zm-7.545.59 2.144-1.861-1.707-1.515-2.145 1.86 1.708 1.515Z" fill="#F09926"/>
    <path d="M23.226 18.19h2v1h-2v-1Z" fill="#F09926"/>
</svg>
