<svg width="38" height="39" fill="none" xmlns="http://www.w3.org/2000/svg">
    <path d="M17.208 38.806V10.603h5.238v23.771h14.746v4.432H17.208Z" fill="#E05863"/>
    <path d="M15.688 29.493c-2.15 0-4.15-.35-6.004-1.047-1.826-.726-3.424-1.733-4.794-3.022a14.157 14.157 0 0 1-3.143-4.633C.995 19.018.62 17.084.62 14.989c0-2.095.376-4.03 1.128-5.802A13.437 13.437 0 0 1 4.93 4.594a14.117 14.117 0 0 1 4.795-3.022C11.55.847 13.552.484 15.728.484c2.31 0 4.418.403 6.325 1.21a12.344 12.344 0 0 1 4.835 3.504l-3.384 3.183c-1.02-1.101-2.162-1.92-3.425-2.458-1.262-.564-2.632-.846-4.11-.846-1.477 0-2.833.242-4.069.726a9.686 9.686 0 0 0-3.183 2.054A9.763 9.763 0 0 0 6.622 11c-.483 1.209-.725 2.538-.725 3.989 0 1.45.242 2.78.725 3.988a9.763 9.763 0 0 0 2.095 3.143 9.685 9.685 0 0 0 3.183 2.055c1.236.483 2.592.725 4.07.725 1.477 0 2.847-.268 4.11-.806 1.262-.564 2.403-1.41 3.424-2.538l3.384 3.223c-1.316 1.531-2.928 2.7-4.835 3.505-1.907.806-4.029 1.21-6.366 1.21Z" fill="#9DA0A8"/>
</svg>
