<svg width="44" height="45" fill="none" xmlns="http://www.w3.org/2000/svg">
    <g clip-path="url(#a)">
        <path d="m7.836 9.16 1.68 6.145 2.891-1.583-4.571-4.563ZM35.732 35.323l-1.68-6.145-2.892 1.583 4.572 4.562ZM28.734 34.485l6.158 1.676-4.572-4.562-1.586 2.886ZM14.927 9.997 8.675 8.321l4.571 4.563 1.68-2.887ZM34.892 8.321l-6.158 1.676 1.586 2.887 4.572-4.563ZM9.515 29.178l-1.68 6.145 4.572-4.562-2.892-1.583ZM34.052 15.398l1.68-6.239-4.572 4.563 2.892 1.676ZM8.676 36.161l6.157-1.676-1.586-2.886-4.571 4.562Z" fill="#9C1006"/>
        <path d="M9.349 27.474a.508.508 0 0 0-.057-.037l-7.363-4.09h17.2l-6.157 6.145-2.938-1.592-.015-.008-.333-.166-.337-.252ZM27.448 10.5l.016.03 1.67 2.832-6.243 6.23v-17.2l4.19 7.375.18.361.187.373ZM33.846 16.822c.024.018.05.034.076.047l.364.181 7.353 4.086h-17.2l6.158-6.145 2.905 1.574.344.257ZM10.02 16.59l.03-.016 2.838-1.667 6.242 6.229H1.898l7.386-4.18.361-.18.373-.186ZM33.55 27.892a.43.43 0 0 0-.03.017l-2.84 1.666-6.241-6.229h17.23l-7.385 4.18-.362.18-.373.186ZM27.029 34.65a.485.485 0 0 0-.037.057l-4.101 7.352V24.88l6.245 6.154-1.675 2.924a.576.576 0 0 0-.013.025l-.166.332-.253.336ZM16.355 10.205a.501.501 0 0 0 .047-.077l.182-.362 4.096-7.343v17.17l-6.16-6.147 1.577-2.898.258-.343ZM16.121 33.982a.51.51 0 0 0-.016-.03l-1.669-2.832 6.243-6.23v17.2l-4.19-7.375-.181-.36-.187-.373Z" stroke="#9C1006" stroke-linejoin="round"/>
    </g>
    <defs>
        <clipPath id="a">
            <path fill="#fff" transform="translate(0 .5)" d="M0 0h44v44H0z"/>
        </clipPath>
    </defs>
</svg>
