<svg width="31" height="32" viewBox="0 0 31 32" fill="none" xmlns="http://www.w3.org/2000/svg">
<g clip-path="url(#clip0_175_2028)">
<path d="M9.77881 25.0803C21.2798 25.0803 27.5694 15.7012 27.5694 7.5691C27.5694 7.30244 27.563 7.03577 27.5516 6.77291C28.7723 5.90427 29.8284 4.82495 30.6703 3.5856C29.5277 4.08413 28.3175 4.41064 27.0792 4.55449C28.3797 3.79208 29.3576 2.58168 29.8297 1.15003C28.599 1.8673 27.2561 2.37174 25.8576 2.6421C25.2684 2.02608 24.5601 1.53621 23.7758 1.20223C22.9915 0.86825 22.1475 0.697124 21.295 0.699238C17.8411 0.699238 15.0411 3.4548 15.0411 6.85291C15.0411 7.33545 15.0957 7.80529 15.2036 8.25736C12.7262 8.13966 10.3006 7.50693 8.08144 6.39953C5.86226 5.29212 3.89824 3.73436 2.31466 1.82559C1.7597 2.76242 1.46714 3.83135 1.46767 4.92021C1.46767 7.05482 2.57244 8.94054 4.25117 10.0428C3.25974 10.0134 2.28935 9.7497 1.41942 9.27324L1.41815 9.35197C1.41815 12.3323 3.57308 14.8212 6.43404 15.385C5.51259 15.632 4.54736 15.6685 3.6099 15.4917C4.40609 17.9361 6.71467 19.7164 9.45119 19.766C7.22644 21.4807 4.49496 22.4076 1.68608 22.4009C1.18196 22.4009 0.682906 22.373 0.194016 22.3158C3.06256 24.1267 6.38651 25.0854 9.77881 25.0803Z" fill="white"/>
</g>
<defs>
<clipPath id="clip0_175_2028">
<rect width="30.4763" height="30.4763" fill="white" transform="translate(0.194382 0.699219)"/>
</clipPath>
</defs>
</svg>
