<svg width="32" height="32" viewBox="0 0 32 32" fill="none" xmlns="http://www.w3.org/2000/svg">
<g clip-path="url(#clip0_175_2020)">
<path d="M17.3315 25.7745C6.91873 25.7745 0.979662 18.2481 0.732042 5.72363H5.9473C6.11873 14.9173 9.96382 18.8107 13.0102 19.6132V5.7249H17.9207V13.6513C20.9302 13.3084 24.0883 9.69698 25.155 5.72363H30.0667C29.6702 7.77142 28.8703 9.7199 27.7137 11.4557C26.5797 13.16 25.1054 14.6114 23.3835 15.7186C25.3062 16.7304 26.9894 18.1429 28.3194 19.8608C29.6774 21.6133 30.6607 23.6262 31.2083 25.7745H25.8026C25.3159 23.9155 24.3037 22.2361 22.887 20.9377C21.5079 19.6736 19.7756 18.8611 17.9219 18.6088V25.7745H17.3315Z" fill="white"/>
</g>
<defs>
<clipPath id="clip0_175_2020">
<rect width="30.4763" height="30.4763" fill="white" transform="translate(0.733028 0.699219)"/>
</clipPath>
</defs>
</svg>
