<?xml version="1.0" encoding="utf-8"?><svg viewBox="0 0 233 65" xmlns="http://www.w3.org/2000/svg" xmlns:xlink="http://www.w3.org/1999/xlink"><style>:root>svg{display:none}:root>svg:target{display:block}</style><svg viewBox="0 0 56 55" id="icon-apostille" xmlns="http://www.w3.org/2000/svg"><g clip-path="url(#aa)"><path d="M54.844 47c0 1.104-.386 2.042-1.157 2.813l-3.343 3.374c-.813.771-1.76 1.157-2.844 1.157-1.104 0-2.042-.386-2.813-1.157L33.344 41.813c-.792-.75-1.188-1.688-1.188-2.813 0-1.104.448-2.104 1.344-3l-8-8-3.938 3.938a1.446 1.446 0 01-1.062.437c-.417 0-.77-.146-1.063-.438.042.042.172.167.391.375.219.209.35.344.39.407.042.062.147.182.313.36.167.176.271.317.313.421a7.9 7.9 0 00.187.422c.084.177.14.349.172.516.031.166.047.354.047.562 0 .792-.292 1.5-.875 2.125a22.5 22.5 0 00-.516.563c-.28.312-.479.526-.593.64-.115.115-.308.287-.578.516-.271.229-.5.39-.688.484a5.801 5.801 0 01-.688.281c-.27.094-.541.141-.812.141a2.893 2.893 0 01-2.125-.875l-12.75-12.75A2.893 2.893 0 01.75 24c0-.27.047-.542.14-.813.094-.27.188-.5.282-.687.094-.188.255-.417.484-.688.23-.27.401-.463.516-.578.114-.114.328-.312.64-.593.313-.282.5-.453.563-.516.625-.583 1.333-.875 2.125-.875a3.1 3.1 0 01.563.047c.166.031.338.088.515.172a7.9 7.9 0 00.422.187c.104.042.245.146.422.313a3.7 3.7 0 00.36.312c.062.042.197.172.405.39.209.22.334.35.376.392A1.447 1.447 0 018.124 20c0-.417.146-.77.438-1.063L19.437 8.063a1.447 1.447 0 011.063-.437c.417 0 .77.146 1.063.438a36.725 36.725 0 00-.391-.376c-.219-.208-.35-.343-.39-.406a3.662 3.662 0 00-.313-.36c-.167-.176-.271-.317-.313-.421a8.127 8.127 0 00-.187-.422 2.14 2.14 0 01-.172-.516A3.063 3.063 0 0119.75 5c0-.792.292-1.5.875-2.125a22.5 22.5 0 00.516-.563c.28-.312.479-.526.593-.64.115-.115.308-.287.578-.516.271-.229.5-.39.688-.484a5.67 5.67 0 01.688-.281c.27-.094.541-.141.812-.141.833 0 1.542.292 2.125.875l12.75 12.75c.583.583.875 1.292.875 2.125 0 .27-.047.542-.14.813-.094.27-.188.5-.282.687a3.703 3.703 0 01-.484.688c-.23.27-.401.463-.516.578a19.98 19.98 0 01-.64.593 22.5 22.5 0 00-.563.516c-.625.583-1.333.875-2.125.875a3.1 3.1 0 01-.563-.047 2.136 2.136 0 01-.515-.172 8.296 8.296 0 00-.422-.187c-.104-.042-.245-.146-.422-.313a3.692 3.692 0 00-.36-.312c-.062-.042-.197-.172-.406-.39a36.065 36.065 0 00-.374-.392c.291.292.437.646.437 1.063 0 .417-.146.77-.438 1.063L28.5 25l8 8c.896-.896 1.896-1.344 3-1.344 1.083 0 2.031.386 2.844 1.157l11.343 11.343c.771.813 1.157 1.76 1.157 2.844z"/></g><defs><clipPath id="aa"><path transform="translate(.5)" d="M0 0h55v55H0z"/></clipPath></defs></svg><svg viewBox="0 0 99 40" id="icon-client-abb" xmlns="http://www.w3.org/2000/svg"><path d="M14.338.941L7.794 19.562h11.857V.942h-5.313zm6.086 0v18.621h11.945L25.825.942h-5.401zM7.526 20.331L.945 39.06h9.529l2.706-7.608h6.471V20.33H7.526zm12.898 0v11.12h6.56l2.639 7.608h9.596L32.637 20.33H20.424zM41.858.941v18.621h11.149V.942h-11.15zm11.919 0v18.621h11.64a11.49 11.49 0 00-3.89-2.537 8.574 8.574 0 004.41-7.496c0-4.743-3.853-8.588-8.617-8.588h-3.544zm-11.92 19.39V39.06h11.15V20.33h-11.15zm11.92 0V39.06h3.542c6.335 0 11.469-5.108 11.469-11.413 0-2.785-1.005-5.334-2.669-7.315H53.777zM71.692.941v18.621h11.082V.942H71.692zm11.854 0v18.621H95.24a11.477 11.477 0 00-3.886-2.537c2.636-1.469 4.42-4.275 4.42-7.496 0-4.743-3.864-8.588-8.628-8.588h-3.6zm-11.854 19.39V39.06h11.082V20.33H71.692zm11.854 0V39.06h3.6c6.334 0 11.465-5.108 11.465-11.413a11.33 11.33 0 00-2.666-7.315H83.546z"/></svg><svg viewBox="0 0 164 60" id="icon-client-danfoss" xmlns="http://www.w3.org/2000/svg"><g clip-path="url(#ca)"><path fill-rule="evenodd" clip-rule="evenodd" d="M145.156 28.771c-.613.614-2.452 2.253-1.635 3.277.613.82 2.862-.614 3.679-1.638 1.226-1.434 1.84-3.687 1.84-3.687s-2.453.819-3.884 2.048zm-12.263.614c-1.431 1.23-2.248 2.663-1.635 3.278.817.614 2.657-.615 3.679-1.844 1.226-1.843 1.635-3.482 1.635-3.482s-1.227.41-3.679 2.049zm-16.76-11.06c3.679-2.254 13.081-11.676 10.832-13.929-2.452-1.024-8.993 9.422-10.832 13.929zM68.51 34.506c-1.43 2.049-3.066 5.326-1.84 6.145 1.227 1.024 4.497-1.843 5.519-3.277 2.044-2.458 3.475-5.94 2.248-6.555-1.84-1.024-4.905 2.458-5.927 3.687zm-29.228 5.121c4.701-1.434 12.264-2.663 14.92-2.867 2.249-3.483 9.198-15.363-.817-19.05L39.282 39.627zM19.252 54.99c2.248 2.663 20.848-.204 33.316-15.771-8.79 1.433-13.899 3.277-15.738 3.891-4.088 6.76-5.723 9.013-7.358 8.808-1.84-.205 1.226-3.687 2.861-7.17-6.95 2.05-15.125 7.58-13.081 10.242zm-7.154-39.737c11.855-4.301 25.14-7.169 38.834-5.326l1.227-2.458c2.861-.41 5.723-.819 8.584-1.024L56.86 12.18c3.679 1.638 6.745 5.53 7.153 9.627 0 5.53-2.452 10.037-5.314 14.338l4.088-.41c2.861-4.506 10.628-10.037 13.694-5.94l1.227-1.434s4.905-.819 5.11-.819c-4.497 8.398-6.95 10.651-6.337 11.47.613.82 8.993-6.35 12.06-12.494l4.904-.41-2.86 4.916c5.109-4.097 6.744-6.76 9.605-5.735 3.679 1.638-4.7 10.651-3.679 11.266.818.41 7.563-4.507 10.833-9.423l-4.701.615 1.635-2.868 4.497-.614c4.905-9.218 17.986-26.628 22.074-24.17 3.475 2.458-5.314 13.928-16.964 22.326l-.614 1.23 10.015-1.025c.205 0 .205.41 0 .615-3.27 2.662-9.606 9.422-6.131 11.675 2.861 1.024 7.562-5.94 7.971-7.17-2.657-.819-.613-8.192 3.066-7.168 2.657.82.613 4.301 0 5.735 4.905-.614 9.197-5.53 9.197-5.53 0-3.892 2.453-7.989 5.315-6.965 1.839 1.024.204 3.687-2.658 6.965-.408.41-.204 1.843-.408 3.687 3.27-1.025 6.949-2.663 10.015-4.097.204-3.892 2.044-8.398 5.11-7.374 2.248.614 0 5.326-2.862 7.579 0 4.916.818 8.398-.409 10.856-1.43 3.072-6.54 5.53-9.606 3.892-3.066-1.844-.409-5.94 1.635-7.374 1.635-1.434 5.927-3.482 5.927-3.482s.205-1.64.205-2.458c-1.635 1.024-9.811 4.096-9.811 4.096-.409 2.868-.204 4.097-1.635 6.76-1.84 3.482-7.562 4.71-9.606 2.867-1.227-1.229-.818-4.506 1.839-6.76 2.248-1.638 6.541-3.481 6.541-3.481s.408-1.639.408-2.458c-2.861 2.458-6.131 4.916-10.424 5.12-2.452 5.121-9.197 12.086-14.102 8.808-4.497-2.867 2.861-10.856 3.679-11.47-1.636 0-4.701.819-4.701.819l-8.176 15.158h.204s27.797-3.278 53.346-3.278l-3.066 2.868c1.431 1.024 2.862 2.048 4.497 2.868 0 0-26.571-1.23-57.025 1.229l-4.496 8.398-5.519.41 4.701-8.399s-13.694.41-44.148 4.507c.409-.615.409-.615.817-1.434 27.184-5.326 45.58-6.555 45.58-6.555l4.087-7.374c-2.861 2.253-8.584 7.17-11.037 4.711-1.84-2.253 4.292-9.422 3.68-9.832-.614-.614-7.972 7.17-10.63 11.266-1.634 0-4.496.41-4.496.41l2.249-4.097c-2.453 1.844-4.906 3.892-7.767 4.916-.614.41-2.453.41-3.27-1.639 0 0-5.315 4.916-8.994 3.073-2.044-1.024-1.226-4.711-.817-5.53l-4.292.41C38.26 60.314 13.734 62.772 10.668 58.061c-3.066-5.12 8.175-12.085 23.505-17.001 0 0 13.49-24.58 13.285-24.785C28.654 13.41 5.354 27.952 5.354 27.952l6.744-12.7z"/></g><defs><clipPath id="ca"><path d="M0 0h164v60H0z"/></clipPath></defs></svg><svg viewBox="0 0 132 60" id="icon-client-enhel" xmlns="http://www.w3.org/2000/svg"><g clip-path="url(#da)"><path d="M6.602 26.68c1.824.292 3.65.886 5.308 1.838 1.652.954 3.116 2.262 4.302 3.74.6.734 1.12 1.518 1.596 2.318.12.206.222.394.326.58l.32.596c.208.392.41.786.6 1.186.12.24.228.482.34.73-.918-4.37-2.066-8.284-3.486-11.924-1.526-3.9-4.158-8.688-7.82-14.22a92.054 92.054 0 00-.87-1.3C3.318 14.74.742 20.436.12 26.706c.342-.058.688-.11 1.03-.154a19.347 19.347 0 015.452.128zm12.732-1.982c1.154 4.178 1.962 8.642 2.464 13.644.146 1.29.268 2.604.372 3.966.02-1.294.02-2.538 0-3.76-.078-5.332-.508-10.102-1.316-14.586-.854-4.68-2.222-9.47-4.2-14.65a117.489 117.489 0 00-2.138-5.214 30.588 30.588 0 00-3.08 2.112 116.856 116.856 0 012.21 4.128c2.542 5.024 4.404 9.724 5.688 14.36z"/><path d="M16.902 24.842c1.31 3.402 2.294 6.504 3.018 9.496a87.006 87.006 0 011.274 6.498 95.54 95.54 0 00-.16-1.812l-.058-.584c-.046-.42-.098-.824-.146-1.232-.33-2.518-.812-5.142-1.482-8.02-.564-2.424-4.672-14.992-6.44-18.48A109.63 109.63 0 0010.78 6.73a29.78 29.78 0 00-3.002 2.854c.34.502.672.99.998 1.486 1.76 2.66 7.038 10.96 8.126 13.772zm4.754-1.024c.802 4.418 1.234 9.108 1.33 14.332.042-1.942.16-13.842.16-13.842l-.098-1.128c-.436-4.738-1.336-9.652-2.738-15.012a137.664 137.664 0 00-1.75-6.078c-1.15.466-2.258.998-3.33 1.596a115.988 115.988 0 012.192 5.332c1.996 5.226 3.378 10.07 4.234 14.8zm12.726-9.476a970.814 970.814 0 01-1.538 6.214A270.276 270.276 0 0128.21 36.99a295.531 295.531 0 01-3.282 9.75c.01-.026.022-.046.036-.072a242.871 242.871 0 003.07-6.406c1.626-3.526 6.26-11.914 7.038-13.51 1.05-2.154 2.092-4.308 3.158-6.474a187.943 187.943 0 018.312-15.152 29.624 29.624 0 00-8.838-4.116 1113.742 1113.742 0 00-3.16 12.662l-.162.67zm-6.634 6.134c-.156 3.284-.456 6.72-.9 10.206-.084.808-.176 1.632-.274 2.454-.294 2.51-.618 4.718-.988 6.746-.348 1.93-.768 3.946-1.28 6.152a284.506 284.506 0 003.116-9.29A273.897 273.897 0 0032.05 20.36c.548-2.21 1.094-4.422 1.642-6.64l.052-.224c1.03-4.18 2.072-8.43 3.164-12.698a29.757 29.757 0 00-7.178-.876c-.802 0-1.596.04-2.386.108.104 1.372.188 2.704.264 4.014.334 5.984.38 11.362.14 16.432zm8.146 6.47l-.078.164c-3.19 6.562-6.466 13.294-9.982 19.998.078-.108.154-.212.224-.322 1.466-2.15 2.88-4.252 4.198-6.25 1.682-2.568 11.154-15.244 12.836-17.532 2.956-4.018 6.24-8.048 9.788-12.018A29.89 29.89 0 0047.214 5.6a188.43 188.43 0 00-8.244 15.038c-1.024 2.086-2.046 4.194-3.076 6.308zm-2.516 11.142c-1.754 2.506-3.526 5.04-5.332 7.59 1.548-1.832 3.082-3.644 4.582-5.432l.052-.058c3.21-3.812 6.53-7.752 9.896-11.626A233.025 233.025 0 0154.098 16.29c.48-.47.954-.942 1.444-1.418a30.086 30.086 0 00-2.144-3.226 160.452 160.452 0 00-9.642 11.848c-3.538 4.814-7.016 9.788-10.378 14.594zm7.768-1.528c-1.688 1.512-3.388 3.05-5.076 4.582 7.338-6.064 14.876-12.204 22.588-18.04l.078-.058a32.1 32.1 0 00-.28-1.15 435.846 435.846 0 00-7.494 6.158 409.79 409.79 0 00-9.816 8.508zm.822-3.082c-2.764 2.802-5.552 5.682-8.248 8.466l-.27.28c-.508.524-1.016 1.05-1.528 1.576.03-.026.056-.048.088-.072 2.782-2.542 5.666-5.164 8.59-7.782a401.557 401.557 0 019.834-8.524 438.837 438.837 0 017.776-6.394c-.222-.74-.48-1.466-.762-2.184a332.276 332.276 0 00-5.07 4.588 305.557 305.557 0 00-10.41 10.046zM43.2 29.1c-3.292 3.784-6.536 7.634-9.678 11.362.208-.222.418-.45.632-.678l.482-.524c3.848-4.152 15.186-14.596 17.18-16.434a362.54 362.54 0 015.304-4.794 27.71 27.71 0 00-1.16-2.42c-.43.424-.858.84-1.278 1.258A229.714 229.714 0 0043.2 29.1z"/><path d="M23.87 23.102c.436 4.682.488 9.62.17 15.106-.13 2.326-.332 4.738-.61 7.362a194.165 194.165 0 001.688-8.768c.352-2.112.656-4.204.91-6.22.156-1.424.286-2.852.424-4.272l.032-.352.052.006c.176-1.86.302-3.718.392-5.526.242-5.042.196-10.396-.144-16.356A180.53 180.53 0 0026.526.09a29.42 29.42 0 00-7.198 1.702c.672 2.148 1.264 4.2 1.78 6.166 1.416 5.408 2.318 10.366 2.762 15.144z"/><path d="M49.854 43.638c-3.24.172-6.446.632-9.58 1.372-3.134.74-6.184 1.782-9.17 3.008a67.37 67.37 0 00-8.74 4.372l-.71.42.136-.674v-.004c-.136-1.652-.476-3.314-.912-4.924a34.75 34.75 0 00-1.668-4.706 32.637 32.637 0 00-2.334-4.36 24.505 24.505 0 00-.684-1.02l-.346-.492c-.13-.17-.254-.342-.372-.488a11.33 11.33 0 00-1.596-1.648c-1.172-.988-2.496-1.714-3.864-2.32a34.248 34.248 0 00-4.288-1.57c-1.832-.534-3.754-.928-5.752-1.284 0 .12-.006.238-.006.358 0 .156.01.312.01.47h.006l.154 2.528h-.02c1.502 15.028 14.184 26.76 29.61 26.76 10.01 0 18.864-4.944 24.258-12.52l.156-.066s1.14-1.72 1.968-3.24a60.986 60.986 0 00-6.256.028z"/><path d="M59.486 29.678a30.1 30.1 0 00-.558-5.748c-8.528 6.466-16.84 13.296-24.912 19.982a40.224 40.224 0 0115.83-2.496c2.32.104 4.634.404 6.888.912a.323.323 0 00-.006-.124 29.64 29.64 0 002.758-12.526zM79.1 19.104h-6.244v6.038h7.24v1.778H70.51V10.09h9.508v1.802h-7.162v5.422H79.1v1.79zm14.304 7.816h-2.326l-6.386-12.518-.072.026V26.92h-2.346V10.09h2.346L91 22.574l.078-.02V10.09h2.326v16.83zm14.41 0h-2.326v-7.422h-6.452v7.422h-2.354V10.09h2.354v7.616h6.452V10.09h2.326v16.83zm11.862-7.816h-6.238v6.038h7.234v1.778h-9.586V10.09h9.514v1.802h-7.162v5.422h6.238v1.79zm5.526 6.038h6.562v1.778h-8.908V10.09h2.346v15.052zm-50.788 13.05c-.926-.068-1.648.15-2.184.648-.444.45-.672 1.068-.672 1.85 0 .73.214 1.482.646 2.252.378-1.104 1.024-2.526 1.962-4.278l.248-.472zm-1.356 5.798c.822.786 1.734 1.252 2.75 1.402.136-.182.268-.362.392-.538a2.85 2.85 0 00.306-.538c.554-1.114.828-2.15.828-3.098 0-1.43-.548-2.342-1.648-2.728-.352.586-.69 1.186-1.01 1.806a28.803 28.803 0 00-.912 1.87 14.707 14.707 0 00-.706 1.824zm4.152 1.378c1.35-.218 2.582-.902 3.702-2.05.11-.084.196-.128.248-.128.098 0 .15.058.15.172 0 .15-.084.286-.248.404-1.42 1.264-2.848 1.988-4.302 2.17-.998 1.07-2.06 1.604-3.174 1.604-1.284 0-1.93-.658-1.93-1.974 0-.436.078-.942.228-1.524-.912-1.016-1.376-2.166-1.376-3.448 0-.854.242-1.558.724-2.124.554-.602 1.298-.902 2.256-.902.176 0 .372.014.574.036.202.026.398.058.6.092 2.066-3.832 3.8-6.426 5.2-7.774.162-.15.41-.228.724-.228.6 0 .9.144.9.43 0 .082-.046.162-.124.248-1.356 1.284-3.168 3.842-5.456 7.674 1.72.798 2.58 2.108 2.58 3.926 0 1.112-.43 2.242-1.276 3.396zm-1.878.548c-.88-.114-1.714-.46-2.502-1.024a3.956 3.956 0 00-.098.896c0 .818.26 1.226.776 1.226.522 0 1.126-.366 1.824-1.098z"/><path d="M85.01 41.366c.312-.532.476-.994.476-1.372 0-.302-.104-.454-.306-.454-.346 0-.828.41-1.446 1.222-.6.834-1.076 1.668-1.428 2.502 1.324-.414 2.216-1.048 2.704-1.898zm4.596 2.35c-.6.734-1.544 1.434-2.848 2.098-1.434.75-2.686 1.128-3.748 1.128-1.55 0-2.326-.85-2.326-2.552 0-.616.216-1.35.626-2.2.418-.9.944-1.648 1.578-2.248.71-.684 1.388-1.026 2.02-1.026.834 0 1.252.41 1.252 1.226 0 .498-.216 1.034-.652 1.6-.762.948-1.876 1.61-3.35 1.974a3.966 3.966 0 00-.098.9c0 1.134.522 1.7 1.576 1.7.834 0 1.864-.342 3.096-1.024a14.91 14.91 0 001.48-.938c.418-.31.762-.622 1.05-.938.312-.332.47-.352.47-.052a.699.699 0 01-.126.352z"/><path d="M93.88 40.418c-1.382-.032-2.574.932-3.572 2.9-.286.528-.424 1.004-.424 1.42 0 .45.156.678.47.678.3 0 .698-.202 1.172-.6.874-.736 1.434-1.466 1.708-2.202.112-.834.328-1.564.646-2.196zm6.224 3.298c-1.948 2.066-3.604 3.024-4.972 2.874-.45-.046-.866-.322-1.252-.822-.384-.57-.618-1.278-.698-2.128-.32.434-.638.83-.964 1.186a9.28 9.28 0 01-1.036.988c-.664.534-1.212.802-1.648.802-.62 0-.926-.392-.926-1.174 0-.668.234-1.362.704-2.078 1.082-1.65 2.294-2.79 3.65-3.422.58-.268 1.122-.402 1.616-.402.144 0 .28.024.444.062.156.042.3.102.45.176.136.076.254.164.352.264.084.098.13.216.13.348 0 .052-.026.098-.084.136a.622.622 0 01-.196.098c-.078.03-.15.056-.214.092-.066.032-.104.058-.104.072-.612 1.118-.926 2.184-.926 3.2 0 1.268.496 1.9 1.48 1.9 1.03 0 2.326-.824 3.872-2.474.118-.15.234-.224.352-.224.084 0 .124.058.124.172a.517.517 0 01-.154.354z"/><path d="M107.084 40.242c-.972 1.916-1.46 3.408-1.46 4.47 0 .838.332 1.252 1.004 1.252 1.05 0 2.372-.858 3.976-2.574.15-.15.274-.222.378-.222.078 0 .124.058.124.176 0 .13-.058.248-.176.346-1.936 2.066-3.584 3.034-4.954 2.9-.352-.016-.672-.206-.972-.574-.352-.398-.528-.91-.528-1.526 0-.266.046-.584.13-.952-1.218 1.454-2.158 2.334-2.828 2.652-.398.182-.75.274-1.05.274-.762 0-1.148-.434-1.148-1.3 0-.932.462-2.238 1.394-3.926.17-.3.522-.45 1.056-.45.312 0 .424.118.346.352-.13.268-.274.528-.41.776-.144.248-.28.508-.41.776-.482.964-.73 1.698-.73 2.196 0 .618.15.926.45.926.704 0 1.532-.658 2.502-1.974.866-1.166 1.532-2.366 1.994-3.598.182-.234.508-.352.978-.352.254 0 .378.068.378.202a.457.457 0 01-.044.15z"/><path d="M110.728 39.668h.364c.124 0 .254-.01.392-.026a1.57 1.57 0 01.306-.026h.392c.11-.214.28-.524.502-.922.208-.4.488-.902.822-1.502.182-.332.398-.69.652-1.076.248-.384.528-.808.848-1.278.332-.33.782-.496 1.356-.496.476 0 .716.124.716.374 0 .05-.02.108-.072.176a57.766 57.766 0 00-1.324 1.9c-.534.778-1.16 1.73-1.876 2.848h3.904c.248.084.372.19.372.326 0 .248-.3.404-.9.476-.104.014-.47.026-1.102.026-.632 0-1.552.006-2.75.02-.814 1.532-1.224 2.786-1.224 3.754 0 1.082.47 1.624 1.402 1.624.462 0 .964-.15 1.498-.45.366-.218.75-.488 1.14-.814.392-.32.802-.72 1.232-1.186.17-.166.306-.242.404-.224.084 0 .124.058.124.176 0 .102-.04.208-.124.322-1.884 1.982-3.506 2.95-4.848 2.904-1.068-.036-1.708-.584-1.93-1.652a4.666 4.666 0 01-.072-.502 4.1 4.1 0 01-.026-.496c0-1.02.28-2.17.854-3.454-.372.02-.632.026-.788.026-.162 0-.208.01-.144.026-.378-.052-.586-.216-.626-.502-.048-.248.128-.372.526-.372z"/><path d="M122.902 39.868c.098-.268.332-.4.698-.4.372 0 .554.134.554.4.032 1.15-.294 3.144-.978 5.972.646-.098 1.2-.118 1.65-.052 1.252.15 1.876.57 1.876 1.252 0 .42-.248.86-.75 1.326-.066.068-.13.098-.196.098-.104 0-.15-.04-.15-.124 0-.068.026-.134.098-.198.346-.316.522-.618.522-.9 0-.55-.548-.824-1.65-.824-.182.014-.404.036-.678.062-.268.022-.574.066-.926.114-.984 3.732-2.6 6.73-4.868 8.998a14.92 14.92 0 01-4.276 3.072c-1.734.864-3.428 1.3-5.076 1.3-1.252 0-2.242-.312-2.978-.938-.724-.626-1.094-1.436-1.094-2.438 0-1.166.586-2.356 1.752-3.572 1.278-1.352 3.148-2.574 5.604-3.676 2.458-1.102 5.656-2.15 9.594-3.148.13-.55.28-1.232.456-2.052.176-.814.378-1.772.612-2.874-1.18 2.248-2.43 3.852-3.748 4.8-.404.302-.762.45-1.076.45-.534 0-.802-.342-.802-1.026 0-.944.612-2.532 1.824-4.748.084-.146.248-.296.488-.436s.45-.212.612-.212c.13 0 .202.048.202.15 0 .016-.02.076-.052.176a18.98 18.98 0 00-.658 1.262c-.26.524-.566 1.164-.918 1.912-.234.616-.346 1.114-.346 1.498 0 .352.11.528.32.528.254 0 .664-.286 1.226-.854.726-.718 1.762-2.35 3.132-4.898zm-1.422 7.022c-1.806.502-3.18.9-4.126 1.2-.998.32-1.93.632-2.776.938-.854.31-1.636.628-2.352.962-1.016.47-1.916.972-2.698 1.512-.782.544-1.44 1.13-1.974 1.766-.932 1.118-1.402 2.19-1.402 3.224 0 .9.306 1.596.932 2.086.612.492 1.428.74 2.444.74 2.13 0 4.288-.968 6.452-2.904 2.548-2.316 4.38-5.49 5.5-9.524z"/></g><defs><clipPath id="da"><path d="M0 0h131.8v60H0z"/></clipPath></defs></svg><svg viewBox="0 0 134 30" id="icon-client-kia" xmlns="http://www.w3.org/2000/svg"><path d="M78.122 26.533c0 .25.067.384.218.384.117 0 .218-.05.335-.117L120.18 1.05c.737-.467 1.39-.717 2.395-.717h9.129c1.407 0 2.345.9 2.345 2.25V19.2c0 2-.452 3.167-2.345 4.25l-11.072 6.333a.625.625 0 01-.368.134c-.134 0-.251-.084-.251-.45V10.05c0-.217-.067-.383-.235-.383-.117 0-.201.05-.318.116L89.11 28.6c-.854.533-1.541.683-2.328.683H66.648c-1.39 0-2.345-.9-2.345-2.233V3.1c0-.167-.084-.317-.218-.317a.648.648 0 00-.334.1L43.734 14.367c-.2.116-.251.233-.251.316 0 .084.034.15.184.284L57.955 28.6c.184.183.318.333.318.467 0 .15-.2.233-.452.233H44.89c-1.005 0-1.792-.15-2.345-.667l-8.677-8.283c-.1-.1-.167-.133-.25-.133a.757.757 0 00-.285.083l-14.49 8.333c-.87.5-1.473.65-2.344.65H3.149c-1.407 0-2.345-.9-2.345-2.233V10.733c0-2.033.452-3.166 2.345-4.25L14.288.1a.553.553 0 01.301-.083c.151 0 .252.166.252.516v21.834c0 .216.067.333.234.333.084 0 .201-.067.318-.133L53.013.983c.889-.516 1.441-.666 2.48-.666h20.25c1.407 0 2.346.9 2.346 2.233l.033 23.983z"/></svg><svg viewBox="0 0 172 60" id="icon-client-opkk" xmlns="http://www.w3.org/2000/svg"><mask id="fa" maskUnits="userSpaceOnUse" x="0" y="32" width="172" height="13"><path d="M171.254 44.123c-24.13-6.466-53.659-10.271-85.553-10.271-31.895 0-61.423 3.805-85.553 10.272 49.539-15.383 121.567-15.383 171.106 0"/></mask><g mask="url(#fa)"><path fill-rule="evenodd" clip-rule="evenodd" d="M171.254 44.123c-24.13-6.466-53.659-10.271-85.553-10.271-31.895 0-61.423 3.805-85.553 10.272 49.539-15.383 121.567-15.383 171.106 0"/></g><path fill-rule="evenodd" clip-rule="evenodd" d="M31.811 45.97c-1.52 0-2.282.55-2.282 2.594 0 2.081.756 2.667 2.282 2.667 1.52 0 2.277-.586 2.277-2.666 0-2.045-.757-2.595-2.277-2.595zm75.598 12.643c-.737-1.618-1.06-1.85-1.41-1.994.186-.152.653-.73 1.327-1.684h-1.011a28.8 28.8 0 01-1.354 1.77v-1.77h-.853v3.677h.853v-1.705c.446.103.859.398 1.451 1.706h.997zm2.028.101c1.128 0 1.679-.448 1.679-1.958 0-1.503-.557-1.929-1.679-1.929-1.107 0-1.664.426-1.664 1.929 0 1.51.55 1.958 1.664 1.958zm0-3.157c.612 0 .798.16.798 1.213 0 1.02-.186 1.214-.798 1.214-.598 0-.784-.195-.784-1.214 0-1.054.186-1.213.784-1.213zm3.356.151c.179-.072.448-.108.682-.108.605 0 .804.18.804 1.192 0 .911-.199 1.164-.798 1.164-.378 0-.688-.137-.688-.354v-1.894zM111.94 60h.853v-1.496c.193.102.441.21.84.21.934 0 1.519-.448 1.519-1.944 0-1.502-.523-1.943-1.677-1.943-.51 0-1.156.108-1.535.275V60zm4.897-4.284h1.376v2.897h.852v-3.677h-3.081v3.677h.853v-2.897zm4.725 2.998c1.128 0 1.678-.448 1.678-1.958 0-1.503-.557-1.929-1.678-1.929-1.108 0-1.665.426-1.665 1.929 0 1.51.55 1.958 1.665 1.958zm0-3.157c.612 0 .797.16.797 1.213 0 1.02-.185 1.214-.797 1.214-.599 0-.785-.195-.785-1.214 0-1.054.186-1.213.785-1.213zm3.355.151c.18-.072.448-.108.681-.108.605 0 .806.18.806 1.192 0 .911-.201 1.164-.798 1.164-.379 0-.689-.137-.689-.354v-1.894zM124.065 60h.852v-1.496c.193.102.441.21.84.21.935 0 1.519-.448 1.519-1.944 0-1.502-.523-1.943-1.678-1.943-.508 0-1.155.108-1.533.275V60zm6.966-3.742c0-1.098-.474-1.432-1.512-1.432-.503 0-1.032.095-1.397.196l.159.737a3.162 3.162 0 011.058-.166c.729 0 .874.144.874.787a3.935 3.935 0 00-.866-.1c-.819 0-1.376.166-1.376 1.206 0 .96.372 1.228 1.478 1.228.489 0 1.142-.108 1.582-.288v-2.169zm-.818 1.647c-.2.072-.454.123-.701.123-.516 0-.647-.08-.647-.578 0-.47.172-.528.654-.528.254 0 .502.022.694.065v.918zm4.827-.073v-2.897h-.852v2.897h-1.375v-2.897h-.853v3.677h2.977v1.02h.688l.2-1.8h-.785zm3.569.78h.853v-3.677h-.853c-.42.788-.948 1.713-1.422 2.341v-2.34h-.853v3.677h.853a18.475 18.475 0 001.422-2.247v2.247zm4.079-2.015h-.977c-.282 0-.432-.145-.432-.477 0-.346.144-.462.412-.462h.997v.94zm-1.334.426c-.489.072-.75.318-1.245 1.59h.977c.391-1.112.619-1.308 1.073-1.308h.529v1.308h.853v-3.677h-2.077c-.839 0-1.108.483-1.108 1.076 0 .52.249.983.998 1.011zM31.811 50.371c-1.052 0-1.313-.274-1.313-1.791 0-1.526.261-1.749 1.313-1.749 1.053 0 1.314.223 1.314 1.748 0 1.518-.261 1.792-1.314 1.792zm3.886-1.012c0-.845.138-1.084.75-1.084.55 0 .735.203.735 1.084 0 1.004-.199 1.134-.783 1.134-.475 0-.702-.245-.702-1.134zm-.006-1.422c.082-.673.198-.991.9-1.055.543-.052.97-.11 1.272-.254v-.795c-.378.166-.811.239-1.314.282-1.244.101-1.718.484-1.718 2.89 0 1.813.563 2.226 1.547 2.226 1.155 0 1.678-.42 1.678-1.886 0-1.46-.516-1.843-1.417-1.843-.44 0-.756.16-.948.434zm4.284.844v-1.329h-1.527v.78h.674v2.898h2.083c.716 0 1.087-.319 1.087-1.185 0-.766-.372-1.164-1.087-1.164h-1.23zm0 1.683v-.989h1.017c.268 0 .406.13.406.484s-.13.505-.391.505h-1.032zm5.777-.144c-.32.091-.651.142-.984.152-.612 0-.9-.16-.908-.946h2.263c.062-1.785-.42-2.183-1.527-2.183-1.018 0-1.63.455-1.63 1.93 0 1.51.687 1.958 1.699 1.958a4.226 4.226 0 001.224-.203l-.137-.708zm-1.108-2.269c.489 0 .667.138.695.788h-1.472c.055-.607.24-.788.777-.788zm2.91-.6c-.063.98-.227 1.951-.49 2.898h-.625l.193 1.8h.687v-1.02h2.64v1.018h.682l.2-1.798h-.675v-2.897h-2.612zm1.76.78v2.118h-1.355c.179-.708.323-1.488.371-2.117h.983zm4.311 2.898h.853v-3.677h-.853c-.42.787-.948 1.712-1.422 2.34v-2.34h-.853v3.678h.853a18.492 18.492 0 001.422-2.248v2.248zm4.03-1.56v1.56h.854v-3.677h-.853v1.351H56.28v-1.351h-.853v3.678h.853v-1.56h1.376zm4.47.751a4.057 4.057 0 01-.982.152c-.612 0-.901-.16-.909-.946h2.263c.062-1.785-.42-2.183-1.526-2.183-1.018 0-1.63.455-1.63 1.93 0 1.51.687 1.958 1.698 1.958a4.216 4.216 0 001.224-.203l-.137-.708zm-1.107-2.269c.489 0 .667.138.695.788h-1.471c.055-.607.24-.788.776-.788zm4.47 1.518v1.56h.853v-3.677h-.853v1.351h-1.374v-1.351h-.853v3.678h.853v-1.56h1.375v-.001zm4.037 0v1.56h.853v-3.677h-.853v1.351H68.15v-1.351h-.852v3.678h.852v-1.56h1.375v-.001zm4.732-.795c0-1.098-.474-1.43-1.513-1.43a5.53 5.53 0 00-1.396.194l.158.737a3.16 3.16 0 011.059-.166c.728 0 .874.146.874.788a3.95 3.95 0 00-.866-.102c-.819 0-1.376.167-1.376 1.207 0 .961.371 1.229 1.478 1.229.489 0 1.142-.11 1.582-.29v-2.167zm-.819 1.648a2.145 2.145 0 01-.7.122c-.517 0-.647-.08-.647-.578 0-.47.171-.528.653-.528.255 0 .502.023.694.066v.917zm4.024-1.308h-.977c-.282 0-.433-.145-.433-.477 0-.347.145-.463.413-.463h.997v.94zm-1.335.425c-.488.073-.749.319-1.244 1.59h.977c.391-1.112.619-1.307 1.072-1.307h.53v1.307h.853v-3.677h-2.077c-.84 0-1.108.484-1.108 1.076 0 .52.248.983.997 1.011zm-45.636 6.07c.178-.072.447-.109.68-.109.606 0 .806.181.806 1.192 0 .91-.2 1.163-.798 1.163-.378 0-.688-.137-.688-.353v-1.893zm-.853 4.292h.853v-1.496c.193.101.44.21.84.21.934 0 1.519-.448 1.519-1.944 0-1.503-.523-1.943-1.678-1.943-.51 0-1.156.108-1.534.274v4.899zm6.967-3.743c0-1.099-.475-1.431-1.514-1.431a5.55 5.55 0 00-1.395.195l.158.738c.289-.11.673-.167 1.06-.167.728 0 .873.145.873.788a3.95 3.95 0 00-.867-.101c-.819 0-1.376.166-1.376 1.206 0 .96.371 1.228 1.479 1.228.488 0 1.142-.108 1.582-.289v-2.167zm-.818 1.647a2.13 2.13 0 01-.702.123c-.516 0-.647-.08-.647-.578 0-.47.172-.527.653-.527.255 0 .503.021.695.065v.917zm5.047.708c-.736-1.618-1.06-1.849-1.41-1.994.186-.151.653-.73 1.328-1.683h-1.011a28.905 28.905 0 01-1.355 1.77v-1.77h-.853v3.677h.853v-1.705c.447.101.86.398 1.451 1.706h.997v-.001zm3.15-.81a4.057 4.057 0 01-.984.152c-.612 0-.9-.158-.907-.946h2.262c.062-1.784-.42-2.181-1.526-2.181-1.018 0-1.63.454-1.63 1.928 0 1.51.687 1.958 1.698 1.958.358 0 .874-.079 1.224-.202l-.137-.708zm-1.107-2.267c.488 0 .667.137.694.787H42.1c.055-.607.24-.787.778-.787zm3.857.18h1.211v-.78H44.68v.78h1.203v2.897h.853v-2.897h-.001zm3.948 1.337v1.56h.853v-3.677h-.853v1.35h-1.375v-1.35h-.853v3.677h.853v-1.56h1.375zm3.35 1.661c1.127 0 1.677-.447 1.677-1.958 0-1.502-.557-1.928-1.677-1.928-1.108 0-1.665.426-1.665 1.928 0 1.51.55 1.958 1.665 1.958zm0-3.157c.612 0 .797.159.797 1.214 0 1.02-.185 1.214-.797 1.214-.6 0-.785-.195-.785-1.214 0-1.054.186-1.214.785-1.214zm2.228 1.452h1.691v-.852H56.26v.853h.001zm5.666 1.604c-.735-1.618-1.059-1.849-1.41-1.994.186-.151.654-.73 1.328-1.683h-1.012a28.26 28.26 0 01-1.354 1.77v-1.77h-.853v3.677h.853v-1.705c.447.101.86.398 1.451 1.706h.997v-.001zm2.029.101c1.128 0 1.678-.447 1.678-1.958 0-1.502-.557-1.928-1.678-1.928-1.108 0-1.664.426-1.664 1.928 0 1.51.55 1.958 1.664 1.958zm0-3.157c.612 0 .797.159.797 1.214 0 1.02-.185 1.214-.797 1.214-.598 0-.784-.195-.784-1.214 0-1.054.186-1.214.784-1.214zm4.986 2.203a2.14 2.14 0 01-.812.174c-.619 0-.914-.188-.914-1.163 0-1.02.295-1.163.914-1.163.283 0 .592.072.812.158l.192-.765c-.26-.101-.729-.173-1.066-.173-1.058 0-1.733.426-1.733 1.928 0 1.51.667 1.958 1.733 1.958.33 0 .792-.072 1.066-.188l-.192-.765zm2.902-.635a39.048 39.048 0 00-.908-2.19H69.69v3.678h.845v-2.68c.31.708.681 1.741.935 2.464h.64c.255-.723.64-1.735.963-2.464v2.68h.846v-3.677h-1.19c-.324.718-.62 1.448-.887 2.189zm5.302 1.488h.853v-3.677h-.853c-.42.788-.95 1.712-1.423 2.34v-2.34h-.853v3.677h.853a18.503 18.503 0 001.423-2.247v2.247zm1.589-2.782c0 1.374.447 1.67 1.265 1.67.365 0 .743-.13.963-.254v1.366h.852v-3.677h-.852v1.43c0 .217-.323.326-.667.326-.468 0-.708-.152-.708-.932v-.824h-.853v.895zm6.698 1.973c-.32.09-.65.141-.984.151-.612 0-.9-.158-.907-.946h2.262c.062-1.784-.42-2.181-1.526-2.181-1.018 0-1.63.454-1.63 1.928 0 1.51.688 1.958 1.698 1.958.358 0 .874-.079 1.224-.202l-.137-.708zm-1.107-2.268c.488 0 .667.137.694.787h-1.472c.056-.607.241-.787.778-.787zm4.724 2.225c-.256.11-.532.169-.811.173-.62 0-.915-.188-.915-1.163 0-1.02.296-1.163.915-1.163.283 0 .591.072.811.158l.193-.765c-.261-.101-.728-.173-1.066-.173-1.059 0-1.733.426-1.733 1.928 0 1.51.667 1.958 1.733 1.958.33 0 .791-.072 1.066-.188l-.193-.765zm4.051.852c-.736-1.618-1.06-1.849-1.41-1.994.186-.151.653-.73 1.328-1.683h-1.011a28.905 28.905 0 01-1.355 1.77v-1.77H89.8v3.677h.852v-1.705c.448.101.86.398 1.452 1.706h.997v-.001zm3.412-2.355c0-1.099-.475-1.431-1.514-1.431-.502 0-1.031.094-1.396.195l.158.738c.29-.11.674-.167 1.059-.167.728 0 .874.145.874.788a3.949 3.949 0 00-.866-.101c-.819 0-1.376.166-1.376 1.206 0 .96.371 1.228 1.478 1.228.489 0 1.142-.108 1.582-.289v-2.167zm-.819 1.647c-.2.073-.454.123-.702.123-.516 0-.646-.08-.646-.578 0-.47.171-.527.653-.527.255 0 .502.021.694.065v.917h.001zm4.023-1.307h-.977c-.282 0-.433-.145-.433-.478 0-.346.145-.463.413-.463h.997v.94zm-1.334.426c-.489.072-.75.317-1.245 1.589h.977c.391-1.113.619-1.307 1.072-1.307h.53v1.307h.853v-3.677h-2.077c-.84 0-1.108.484-1.108 1.076 0 .52.249.983.998 1.012zM42.94 0c-9.474 0-14.232 3.007-14.232 15.46 0 8.426 2.085 12.823 6.277 14.826a321.185 321.185 0 0118.876-2.257c2.18-2.498 3.267-6.483 3.267-12.569C57.128 3.007 52.413 0 42.94 0zm0 26.124c-6.316 0-8.517-1.437-8.517-10.575 0-9.14 2.201-10.257 8.517-10.312 6.314-.056 8.515 1.423 8.515 10.312 0 8.888-2.2 10.575-8.515 10.575zm24.72-10.003V5.337h8.445c2.314 0 4.106 1.938 4.106 5.546 0 3.609-1.877 5.237-4.235 5.237H67.66v.001zm0 10.981v-6.141h10.032c5.743 0 8.187-4.401 8.187-10.033C85.879 5.295 83.864.41 77.563.41h-15.56v27.033c1.884-.129 3.77-.243 5.656-.341v-.001zM96.198.416H90.54v26.217c1.887.018 3.774.052 5.659.099V.416zm16.246 27.365l-9.399-12.834L114.759.416h-6.858l-11.66 14.477 8.775 12.316c2.484.129 4.962.393 7.428.572h.001zM124.736.416h-5.659v27.951c1.894.172 3.78.357 5.658.558V.417l.001-.001zm18.806 31.251l-11.848-16.72L143.296.416h-6.858l-11.659 14.477 10.855 15.518c2.662.386 5.298.805 7.907 1.256h.001z"/></svg><svg viewBox="0 0 127 60" id="icon-client-parmalat" xmlns="http://www.w3.org/2000/svg"><path fill-rule="evenodd" clip-rule="evenodd" d="M50.702 60C25.449 57.944 7.096 49.967 7.096 40.424c0-7.561 11.82-14.853 29.34-18.67C15.146 24.617 0 31.566 0 40.424 0 50.824 21.974 59.07 50.702 60zm25.448-.024c25.277-2.056 43.605-10.033 43.605-19.576 0-7.561-11.819-14.853-29.339-18.67 21.289 2.862 36.436 9.812 36.436 18.67.024 10.4-21.974 18.646-50.702 19.576z"/><path d="M63.426 31.003c3.013 0 5.456-2.147 5.456-4.796 0-2.649-2.443-4.796-5.456-4.796-3.014 0-5.457 2.147-5.457 4.796 0 2.649 2.443 4.796 5.457 4.796z"/><path fill-rule="evenodd" clip-rule="evenodd" d="M66.118 3.254C65.188 1.468 64.503 0 63.426 0c-1.052 0-1.738 1.468-2.692 3.254-.93 1.787-1.713 3.916-1.713 5.213 0 2.128 1.958 3.866 4.405 3.866 2.422 0 4.38-1.738 4.38-3.866.024-1.297-.759-3.426-1.688-5.213zm-23.785 9.568c-2.227-.171-4.013-.391-4.552.416-.538.808.563 2.056 1.86 3.67 1.297 1.616 2.985 3.255 4.282 3.916 2.105 1.077 4.796.44 5.995-1.42 1.224-1.859.49-4.208-1.615-5.285-1.272-.636-3.743-1.1-5.97-1.297zm44.902 4.087c1.297-1.615 2.398-2.863 1.86-3.67-.539-.808-2.325-.588-4.552-.417-2.227.172-4.698.637-5.995 1.297-2.104 1.077-2.814 3.426-1.615 5.286 1.224 1.86 3.89 2.471 5.995 1.419 1.297-.636 3.01-2.3 4.307-3.915zm-13.091 2.324c.905-1.37 1.541-3.988 1.786-6.362.244-2.373.538-4.258-.563-4.82-1.101-.563-2.839.611-5.04 1.982-2.203 1.37-4.479 3.18-5.384 4.551-1.468 2.227-.587 5.09 1.933 6.362 2.545 1.273 5.8.514 7.267-1.713zM61.909 14.56c-.906-1.37-3.157-3.181-5.36-4.552-2.202-1.37-3.914-2.545-5.04-1.982-1.101.563-.832 2.447-.563 4.82.245 2.374.881 4.993 1.786 6.363 1.469 2.227 4.699 2.985 7.243 1.713 2.52-1.273 3.402-4.136 1.934-6.362zm-10.694 6.973c-1.786 0-4.698.832-7.17 1.811-2.446 1.003-4.477 1.713-4.477 2.839 0 1.125 2.006 1.86 4.478 2.863 2.447 1.003 5.359 1.835 7.17 1.835v-.025c2.936 0 5.31-2.08 5.31-4.673-.025-2.545-2.399-4.65-5.31-4.65zM75.66 30.88c1.787 0 4.699-.831 7.17-1.81 2.447-1.003 4.454-1.713 4.454-2.838 0-1.126-2.007-1.86-4.478-2.839-2.447-1.003-5.359-1.835-7.17-1.835-2.936 0-5.31 2.08-5.31 4.674.025 2.569 2.398 4.649 5.335 4.649zm-48.034 9.226c0-2.056-.807-4.16-3.01-4.16-2.25 0-2.985 2.08-2.985 4.16 0 2.104.783 4.086 3.01 4.086 2.251 0 2.985-1.982 2.985-4.086zm-9.347 10.4V34.184c0-.587.563-.563.563-.563h2.153s.563 0 .563.563v1.053c0 .024.024.024.024.024.025 0 .025-.025.05-.025.831-1.345 2.177-1.982 3.719-1.982 3.94 0 5.726 3.28 5.726 6.95 0 3.45-1.86 6.68-5.53 6.68-1.518 0-2.937-.66-3.769-1.933 0 0 0-.025-.024-.025h-.025s-.024 0-.024.025v5.53c0 .587-.563.587-.563.587h-2.3s-.563 0-.563-.562zm21.436-10.278c0-.024-.025 0-.025 0-.587.514-1.786.539-2.838.734-1.077.22-2.056.588-2.056 1.909 0 1.321 1.003 1.64 2.129 1.64 2.692 0 2.79-2.203 2.79-2.961v-1.322zm-4.968-2.642H32.3c-.563 0-.538-.392-.49-.588.49-2.863 3.206-3.744 5.85-3.744 2.495 0 5.53.563 5.53 3.67v6.73c0 .856.073 1.688.22 2.3.049.22.22.563-.343.563h-2.52c-.416 0-.514-.392-.563-.563a6.136 6.136 0 01-.098-.66c0-.025-.025 0-.025 0-1.1 1.15-2.691 1.566-4.208 1.566-2.374 0-4.283-1.224-4.283-3.867 0-2.912 2.154-3.621 4.283-3.915 2.129-.318 4.086-.245 4.086-1.688 0-1.517-1.028-1.738-2.227-1.738-1.125 0-1.908.392-2.178 1.37-.073.148-.146.564-.587.564zm46.933 2.642c0-.024-.024 0-.024 0-.588.514-1.787.539-2.839.734-1.076.22-2.055.588-2.055 1.909 0 1.321 1.003 1.64 2.129 1.64 2.691 0 2.79-2.203 2.79-2.961v-1.322zm-4.967-2.642h-2.447c-.563 0-.538-.392-.49-.588.49-2.863 3.206-3.744 5.849-3.744 2.496 0 5.53.563 5.53 3.67v6.73c0 .856.073 1.688.22 2.3.05.22.22.563-.342.563h-2.52c-.417 0-.515-.392-.564-.563a6.136 6.136 0 01-.097-.66c0-.025-.025 0-.025 0-1.101 1.15-2.692 1.566-4.209 1.566-2.373 0-4.282-1.224-4.282-3.867 0-2.912 2.129-3.621 4.282-3.915 2.13-.318 4.087-.245 4.087-1.688 0-1.517-1.028-1.738-2.227-1.738-1.126 0-1.909.392-2.178 1.37-.073.148-.147.564-.587.564zM99.2 40.228c0-.024-.024 0-.024 0-.587.514-1.786.539-2.838.734-1.077.22-2.056.588-2.056 1.909 0 1.321 1.004 1.64 2.105 1.64 2.691 0 2.79-2.203 2.79-2.961v-1.322h.024zm-4.967-2.642h-2.447c-.563 0-.538-.392-.49-.588.49-2.863 3.206-3.744 5.85-3.744 2.495 0 5.529.563 5.529 3.67v6.73c0 .856.074 1.688.221 2.3.049.22.22.563-.343.563h-2.52c-.416 0-.514-.392-.563-.563a6.162 6.162 0 01-.098-.66c0-.025-.025 0-.025 0-1.1 1.15-2.691 1.566-4.208 1.566-2.374 0-4.283-1.224-4.283-3.867 0-2.912 2.154-3.621 4.283-3.915 2.129-.318 4.086-.245 4.086-1.688 0-1.517-1.028-1.738-2.251-1.738-1.126 0-1.909.392-2.178 1.37-.073.148-.122.564-.563.564zM44.34 45.954v-11.77c0-.587.562-.587.562-.587h2.178s.563 0 .563.587v1.787c0 .024.024.024.024.024.025 0 .025-.024.025-.024.636-1.615 2.324-2.717 4.013-2.717h.196c.195.025.562.123.562.588v2.25c0 .588-.342.515-.563.49-.22-.024-.464-.024-.685-.024-2.52 0-3.4 1.884-3.4 4.135v5.237c0 .563-.564.563-.564.563h-2.324c-.025.024-.588.024-.588-.539zm9.029 0v-11.77c0-.587.563-.562.563-.562h2.128s.563 0 .563.587v1.15c0 .024.025.024.025.024.024 0 .048-.024.048-.024.906-1.297 2.203-2.056 3.818-2.056 1.59 0 2.985.612 3.67 2.154.734-1.126 2.056-2.154 3.793-2.154 2.667 0 4.6 1.273 4.6 4.625v8.075c0 .588-.562.563-.562.563H69.69s-.563 0-.563-.563V39.25c0-1.713-.147-3.157-2.129-3.157-1.957 0-2.3 1.64-2.3 3.279v6.607c0 .587-.563.563-.563.563h-2.324s-.563 0-.563-.563v-6.68c0-1.493.098-3.23-2.08-3.23-.685 0-2.325.44-2.325 2.985v6.925c0 .563-.562.563-.562.563h-2.325c-.025-.025-.587-.025-.587-.588zm33.107 0V30.318s0-.587.563-.587h2.325c.563 0 .563.587.563.587v15.636c0 .563-.563.563-.563.563h-2.325s-.563 0-.563-.563zm21.95-15.636v2.716s0 .587.563.587h1.419c.563 0 .563.563.563.563v1.224c0 .587-.563.587-.563.587h-1.419s-.563 0-.563.563v5.824c0 1.199.293 1.492 1.468 1.492.171 0 .343 0 .514-.024.514-.05.563-.074.563.563v1.615s0 .514-.563.587c-.465.049-.979.049-1.468.049-2.129 0-3.965-.49-3.965-3.083v-7.048s.001-.562-.562-.562h-.979s-.563 0-.563-.588V34.16s0-.563.563-.563h.979c.563 0 .562-.587.562-.587v-2.716s0-.588.563-.588h2.325c.587.025.563.612.563.612zm-6.729.172v1.492h.244v-.587h.196c.147 0 .245.024.294.049.098.049.146.171.146.342v.221h.245v-.025s0-.049-.024-.073v-.245a.395.395 0 00-.074-.22c-.049-.074-.122-.123-.244-.147.097-.025.171-.05.22-.073.098-.05.147-.147.147-.294 0-.196-.074-.318-.221-.392a1.38 1.38 0 00-.391-.049h-.538zm.88.464c0 .123-.048.196-.146.22-.049.025-.147.025-.245.025h-.245v-.538h.22c.147 0 .245.024.319.049a.315.315 0 01.097.244zm.979.294c0 .367-.122.685-.391.954-.269.27-.563.392-.955.392-.367 0-.685-.123-.929-.392a1.29 1.29 0 01-.392-.954c0-.367.122-.71.392-.954.269-.27.562-.392.929-.392s.686.122.955.392c.269.269.391.587.391.954zm-1.346-1.175c.319 0 .588.123.808.343.22.22.342.514.342.832 0 .318-.122.612-.342.832a1.11 1.11 0 01-.808.343 1.11 1.11 0 01-.807-.343 1.167 1.167 0 01-.343-.832c0-.318.098-.612.343-.832.22-.22.489-.343.807-.343z"/></svg><svg viewBox="0 0 150 65" id="icon-client-privod" xmlns="http://www.w3.org/2000/svg"><path d="M36.56 0c.188.469.656.39.999.422 2.418.203 4.648 1.047 6.863 1.922 1.84.734 3.619 1.656 5.226 2.797 2.277 1.609 4.46 3.328 6.286 5.5 1.076 1.296 2.121 2.625 3.041 4.03 1.061 1.61 2.06 3.298 2.699 5.11a53.313 53.313 0 011.669 5.703c.499 2.172.624 4.36.64 6.532 0 1.453.093 2.968-.266 4.406-.514 2.062-.858 4.156-1.606 6.172-.515 1.406-1.123 2.765-1.685 4.14-.546 1.297-1.373 2.47-2.168 3.657-1.357 2.03-3.058 3.734-4.805 5.406-1.263 1.219-2.698 2.25-4.164 3.25a25.383 25.383 0 01-3.526 1.984 37.26 37.26 0 01-3.93 1.532c-1.186.374-2.402.562-3.588.921-1.326.422-2.714.438-4.055.532-2.761.203-5.553.14-8.283-.438a38.596 38.596 0 01-5.382-1.594c-2.199-.812-4.211-1.89-6.192-3.109a19.625 19.625 0 01-3.26-2.5c-1.747-1.656-3.525-3.297-4.898-5.313-.998-1.453-2.012-2.906-2.777-4.468-.873-1.797-1.622-3.657-2.152-5.625-.468-1.766-.749-3.547-1.108-5.313-.171-.86-.062-1.718-.093-2.562-.125-2.938-.016-5.875.67-8.735a32.333 32.333 0 011.638-4.906c.687-1.625 1.435-3.203 2.387-4.672.811-1.25 1.747-2.437 2.667-3.61 1.544-1.983 3.479-3.546 5.444-5.077a24.476 24.476 0 014.461-2.782c1.638-.796 3.276-1.671 5.054-2.093 1.42-.344 2.776-1.016 4.305-.907.203.016.343-.078.375-.296C30.212 0 33.394 0 36.56 0zm17.112 34.14c0 4.094 0 8.172.016 12.266 0 .563-.172.907-.671 1.188-.78.437-1.607.86-2.324 1.36-2.855 1.983-6.037 3.405-8.891 5.39-.25.172-.515.25-.812.078-.717-.422-1.45-.813-2.137-1.25-.561-.375-.514-.672.094-1.031.874-.516 1.747-1.016 2.62-1.532 2.684-1.578 5.35-3.172 8.05-4.718.701-.407 1.029-.844 1.013-1.703-.031-1.766.031-3.532.016-5.297-.094-5.078-.031-10.157-.047-15.235 0-1.14.156-2.281 0-3.422-.094-.687.28-1.125.796-1.39 1.31-.672 2.62-1.375 3.9-2.094.451-.25.795-.516.56-1-.264-.547-.764-.313-1.138-.078-1.373.844-2.839 1.5-4.227 2.312-.796.47-1.139.97-1.139 1.907.031 7.734.016 15.468.047 23.203 0 .89-.265 1.437-1.092 1.843-.827.422-1.607.938-2.418 1.407-2.105 1.218-4.18 2.5-6.27 3.75-2.2 1.312-4.415 2.61-6.598 3.953-.484.297-.858.375-1.326.016-.374-.282-.811-.454-1.232-.657-.281-.14-.609-.218-.609-.625 0-.36.25-.547.53-.703 1.794-1.078 3.604-2.156 5.382-3.266 3.198-1.968 6.364-3.984 9.577-5.906.796-.468 1.046-.984 1.046-1.86-.032-7.765-.016-15.515-.032-23.28 0-.625.219-1.032.749-1.313.593-.312 1.17-.656 1.763-1 1.388-.797 2.792-1.578 4.149-2.406.561-.344.483-.797-.094-1.14-.64-.376-1.123.093-1.575.343-1.888 1.031-3.728 2.14-5.6 3.203-.593.344-.89.766-.89 1.485.016 7.89.016 15.78.032 23.671 0 .735-.296 1.141-.89 1.5-1.31.782-2.588 1.61-3.883 2.422-1.466.907-2.901 1.907-4.43 2.719-2.137 1.125-4.102 2.516-6.192 3.688-1.872 1.046-3.65 2.25-5.476 3.39-.218.125-.436.203-.67.078a36.562 36.562 0 01-1.716-.937c-.437-.25-.452-.61-.016-.828.577-.297 1.077-.75 1.638-1.047 2.153-1.14 4.165-2.516 6.224-3.797 2.59-1.625 5.038-3.438 7.721-4.906 1.03-.563 2.121-1.094 3.01-1.907.234-.203.437-.547.703-.578.904-.156.967-.765.967-1.5-.016-7.937 0-15.89-.032-23.828 0-.734.281-1.156.89-1.5 2.183-1.203 4.351-2.422 6.52-3.61.545-.296.592-.64.124-1.015-1.622-1.312-3.416-2.328-5.303-3.203-1.529-.703-3.12-1.25-4.742-1.703-1.591-.453-3.229-.844-4.867-.922-2.48-.11-4.96-.14-7.44.39-1.45.313-2.886.641-4.274 1.11-2.277.766-4.445 1.844-6.473 3.14-.53.329-1.03.688-1.513 1.094-.624.516-.546.907.202 1.266.25.125.53.219.78.344 1.888 1 3.728 2.062 5.647 2.984.889.422 1.217.969 1.217 1.922-.016 7.89-.016 15.781-.016 23.672 0 .547.11.922.655 1.266 1.498.906 3.104 1.609 4.54 2.64.92.656 1.965 1.14 2.932 1.75.577.36.546.688-.032 1.047a38.94 38.94 0 01-1.762.984c-.359.188-.78.25-1.108 0-.78-.578-1.653-.953-2.464-1.468-1.607-1.032-3.323-1.86-4.93-2.907-.748-.5-1.138-.968-1.138-1.828.016-1.672 0-3.328 0-5V17.406c0-.562-.015-1.172-.561-1.453-.905-.469-1.607-1.203-2.496-1.672-.796-.422-1.591-.875-2.387-1.297a34.833 34.833 0 00-2.027-1.015c-.406-.172-.796-.063-.999.344-.187.39.094.64.39.828.219.14.453.25.687.375 1.887 1.015 3.774 2.046 5.662 3.046.452.235.592.594.592 1.079-.015 1.484-.015 2.968-.015 4.453v19.14c0 .594.062 1.172.624 1.516 1.59.969 3.213 1.89 4.804 2.844.92.547 1.825 1.093 2.714 1.656.281.188.64.469.25.797-.624.5-1.31.937-2.028 1.297-.328.172-.749.125-1.123-.094-2.511-1.5-5.007-3.016-7.534-4.484-.546-.328-.842-.797-.764-1.328.218-1.297 0-2.594.015-3.876.094-6.687.047-13.39.047-20.078 0-.53-.203-.906-.655-1.14-1.763-.89-3.525-1.766-5.241-2.735-.359-.203-.858-.296-1.092.188-.218.453.172.734.515.922.982.515 2.027.937 2.995 1.484 1.934 1.094 2.09.5 2.074 3-.031 7.61-.015 15.203-.031 22.813 0 .656.047 1.25.702 1.609.733.406 1.466.781 2.184 1.203 1.825 1.047 3.619 2.125 5.444 3.172.608.344.499.64 0 .969-.437.281-.89.531-1.31.828-.64.469-1.249.516-1.935.094-2.262-1.313-4.54-2.594-6.8-3.907-.843-.484-1.264-1.125-1.249-2.203.078-3.937.032-7.86.032-11.797 0-3.984 0-7.968.015-11.953 0-.578-.11-1.078-.686-1.375-1.014-.515-2.012-1.062-3.026-1.593-.655-.344-1.014-.172-1.31.53-1.046 2.5-1.841 5.048-2.34 7.72-.468 2.546-.39 5.093-.188 7.609.203 2.5.874 4.937 1.763 7.312 1.123 2.97 2.636 5.703 4.664 8.141 2.246 2.703 4.851 4.953 7.924 6.688 2.043 1.14 4.165 2.14 6.427 2.718 1.637.422 3.306.782 5.022.953 2.652.25 5.272.203 7.893-.203 2.152-.328 4.227-1 6.255-1.797a23.338 23.338 0 006.208-3.64c2.87-2.328 5.335-5.078 7.222-8.313 1.03-1.781 1.981-3.61 2.605-5.562.717-2.25 1.326-4.516 1.435-6.907.11-2.578.203-5.124-.437-7.656-.28-1.125-.468-2.265-.795-3.39-.375-1.266-.89-2.47-1.404-3.688-.11-.265-.343-.578-.733-.422-.796.313-1.576.64-2.168 1.282-.14.156-.281.328-.515.312-.827-.031-.967.469-.967 1.172.03 4.047.03 8.125.03 12.219z"/><path d="M37.543 28.515v2.422c0 .485-.234.625-.64.407l-7.346-3.891c-.578-.297-1.14-.625-1.716-.922-.406-.203-.655-.5-.655-.969a239.477 239.477 0 010-4.734c0-.547.374-.688.857-.422 2.637 1.438 5.242 2.922 7.924 4.266 1.186.593 1.857 1.281 1.607 2.672-.094.39-.031.78-.031 1.171zM27.17 35.078v-2.422c-.016-.703.28-1.156.936-1.453.577-.265 1.107-.656 1.653-1.015.67-.438 1.28-.454 2.012 0 1.28.78 2.652 1.421 3.978 2.14.655.344.686.719.062 1.125a952.708 952.708 0 01-6.863 4.281c-.328.203-.593.5-.983.625-.53.188-.81.063-.81-.53.03-.938.015-1.845.015-2.75zM37.543 14.64c-.265 1.438.078 2.938 0 4.438-.031.703-.327 1.156-.951 1.469-.64.328-1.295.64-1.872 1.11-.359.296-.78.374-1.232.124-1.435-.812-2.886-1.625-4.321-2.437-.203-.11-.453-.188-.468-.47-.016-.312.234-.421.452-.562 2.527-1.53 5.054-3.062 7.566-4.593.187-.11.374-.22.577-.079.374.235.202.61.25 1zM80.998 55l.066-1.635c.022-1.077.33-1.365 1.565-1.365h65.407c1.675 0 1.896.192 1.896 1.654 0 .442.044.884.066 1.327-22.993.019-46.007.019-69 .019zm32.936-25.432c0 6.278-.02 12.533.021 18.81 0 .913-.188 1.492-1.148 1.58-1.545.134-1.9 0-2.046-1.268-.272-2.315-.209-4.652-.021-6.99.167-2.114.042-4.23.083-6.344 0-.223-.041-.49-.313-.467-.271 0-.271.267-.313.49-.626 4.474-1.274 8.948-1.858 13.445-.105.845-.46 1.135-1.211 1.135-2.026.022-2.13-.067-2.13-2.204V10.58c0-1.335.355-1.58 2.213-1.58 1.065 0 1.128.69 1.128 1.558-.021 4.074 0 8.17 0 12.243 0 .601-.063 1.603.48 1.603.647-.022.334-.98.355-1.514.104-1.914.376-3.806.605-5.72.251-1.982.46-3.94.648-5.922.167-1.825.605-2.226 2.296-2.248.961 0 1.295.445 1.274 1.425-.021 3.227-.021 6.455-.021 9.683-.042 3.16-.042 6.322-.042 9.46zm-32.936-.694V10.668c0-1.514.139-1.645 1.713-1.645 2.269 0 4.56.022 6.829-.022 1.041-.022 1.458.373 1.458 1.36a9740.03 9740.03 0 000 36.742c0 2.084-1.597 2.128-3.01 1.645-.647-.22-.74-.746-.74-1.338.023-2.084 0-4.168 0-6.252v-26.98c0-.264.023-.527-.023-.768-.116-.592-.486-1.053-1.134-1.031-.648 0-1.042.439-1.135 1.053-.046.285-.023.592-.023.877v32.904c0 1.71-.07 1.754-2.037 1.754-1.55 0-1.898-.329-1.898-1.776.023-6.099.023-12.219 0-18.317.023 0 .023 0 0 0zm35.022 1.436c0-5.327-.042-10.676.021-16.003.021-1.381-.021-2.74-.042-4.122-.021-.701.36-1.118.911-1.096 1.781.066 3.583-.263 5.364.044 2.12.373 2.438 1.162 2.586 3.64.254 4.45.064 8.9.085 13.372 0 .351-.085.636-.297.899-.509.614-.488 1.272-.064 1.907.34.526.382 1.075.382 1.666 0 4.648.085 9.274-.021 13.921-.085 3.727-1.251 4.078-4.07 4.407-.976.11-1.972.022-2.968.022-1.421 0-1.845-.395-1.845-1.886-.021-1.973 0-3.946 0-5.919-.042-3.617-.042-7.234-.042-10.851zm5.724-11.114c0-1.71-.021-3.42.021-5.152.021-.965-.233-1.535-1.293-1.49-1.145.043-1.42.262-1.42 1.49-.022 3.53 0 7.08 0 10.61 0 .855.169 1.645 1.229 1.689.996.043 1.463-.483 1.484-1.667-.021-1.841-.021-3.66-.021-5.48zm-.191 12.43v-.329c.021-.833.042-1.666-1.124-1.644-.996.022-1.208.285-1.208 1.688 0 3.573-.021 7.147 0 10.72 0 .79-.212 1.557-.042 2.368.148.701.445 1.008 1.123 1.008.636 0 1.018-.175 1.251-.877.276-.833-.042-1.578-.042-2.367.042-3.53.042-7.037.042-10.567zm22.418 17.352h-4.563c-1.147-.022-1.568-.466-1.358-1.53.141-.73.187-1.55.96-2.038.444-.288.421-.776.398-1.22-.117-2.393.023-4.83.327-7.158.562-4.255.328-8.532.679-12.765.374-4.61.772-9.22.866-13.852.023-.953.327-1.529 1.521-1.396.889.089 1.802 0 2.691.022.936.022 1.451.488 1.451 1.374.023 1.33.047 2.66 0 3.99-.117 3.169 0 6.36.327 9.485.539 4.81.515 9.618.866 14.406.141 1.906.422 3.79.468 5.718.024.62.211 1.307.726 1.706.749.598.678 1.352.655 2.128 0 .775-.421 1.152-1.24 1.152-1.592-.022-3.183-.022-4.774-.022zm.608-22.384v-1.22c0-.354.094-.841-.398-.908-.561-.088-.491.443-.585.776-.468 1.618-.234 3.302-.351 4.942-.234 3.457-.07 6.915-.304 10.394-.07 1.13-.117 2.283-.398 3.391-.117.488-.163.997.351 1.285.632.355 1.381.289 2.036.09.492-.156.679-.621.585-1.087-.374-1.795-.093-3.612-.257-5.407-.375-4.1-.234-8.2-.679-12.256zm-16.575 2.284c0-5.355-.023-10.688.023-16.043 0-1.239.068-2.5 1.251-3.363.774-.576 5.623-.664 6.351-.045.888.753 1.412 1.616 1.366 2.877-.091 2.921-.022 5.82-.022 8.74v24.74c0 2.103-.365 2.546-2.482 3.01-1.707.354-3.437.266-5.03-.376-1.321-.531-1.412-1.947-1.412-3.142-.045-3.873-.022-7.745-.022-11.618-.023-1.593-.023-3.186-.023-4.78zm3.232.045v15.246c0 .797 0 1.638 1.184 1.616 1.252-.022 1.73-.487 1.73-1.66V13.831c0-1.173-.501-1.615-1.753-1.638-1.184-.022-1.184.753-1.184 1.572.023 5.067.023 10.112.023 15.158zm-28.262-7.626v8.636c0 1.278-.237 2.4-1.516 3.14-.427.246-.782.426-1.28.426-.9.022-1.8.022-2.701.134-.948.135-1.138.516-1.138 1.324.024 4.374.024 8.747.024 13.121 0 1.548-1.209 2.333-2.701 1.705-.57-.224-.664-.673-.664-1.211.024-1.638 0-3.297 0-4.935v-32.95c0-1.547.142-1.704 1.754-1.681 1.73.044 3.46-.113 5.19.157 1.99.314 3.032 1.278 3.056 3.23-.024 3.005-.047 5.966-.024 8.904zm-6.658.09c0 2.467.023 4.934 0 7.402 0 .852.284 1.3 1.28 1.345.995.045 1.516-.314 1.516-1.256 0-5.002.023-10.003-.024-15.005 0-.606 0-1.436-1.066-1.436-1.114.023-1.683.516-1.706 1.548v7.402z"/></svg><svg viewBox="0 0 101 60" id="icon-client-psg" xmlns="http://www.w3.org/2000/svg"><g clip-path="url(#ia)"><path d="M100.43 16.71C96.486 1.87 70.927-4.227 43.335 3.105 15.743 10.437-3.43 28.404.514 43.252 4.457 58.1 30.02 64.189 57.614 56.86c27.591-7.327 46.759-25.308 42.816-40.15zM57.224 55.386C33.54 61.68 11.312 55.41 7.583 41.377c-3.729-14.033 12.46-30.506 36.149-36.8 23.69-6.295 45.909-.016 49.632 14.017 3.722 14.033-12.45 30.506-36.14 36.792z"/><path d="M89.114 26.94l-.004-6.895H68.425v20.69h6.895V26.94h13.794zm-24.184 6.9H51.136v-6.9H64.93v-6.894H44.242v20.686H64.93v-6.891zm-31.081 6.897h6.898v-20.69H20.06v20.69h6.899V26.94h6.89v13.796zm101.068-19.809v7.853h-1.826v-6.42h-5.477v6.42h-1.826v-7.853h9.129zm10.61 0a1.98 1.98 0 011.245.336 1.387 1.387 0 01.457 1.187v1.747a1.556 1.556 0 01-.411 1.156 2.26 2.26 0 01-1.354.365h-4.898v3.058h-1.823v-7.853l6.784.004zm-4.962 1.34v2.112h4.018a1.07 1.07 0 00.623-.12.58.58 0 00.197-.503v-.869a.584.584 0 00-.197-.5 1.085 1.085 0 00-.623-.12h-4.018zm9.781.516a2.08 2.08 0 01.427-1.476 2.213 2.213 0 011.521-.38h5.78a2.216 2.216 0 011.523.38c.324.42.476.948.425 1.476v4.14a2.09 2.09 0 01-.425 1.475 2.214 2.214 0 01-1.523.378h-5.78a2.21 2.21 0 01-1.521-.378 2.08 2.08 0 01-.427-1.476v-4.139zm7.853 4.564v-4.99h-6.024v4.99h6.024zm15.798-6.42v7.853h-1.676v-4.853c0-.28.022-.56.064-.838-.117.292-.27.568-.455.822l-2.953 3.925h-.365l-2.95-3.94a3.156 3.156 0 01-.471-.807l.044.838v4.853h-1.49v-7.853h1.49l3.698 4.747 3.617-4.747h1.447zm5.472 1.429v4.99h4.927v-1.703l1.826.38v.898a2.08 2.08 0 01-.428 1.476 2.204 2.204 0 01-1.521.378h-4.686a2.204 2.204 0 01-1.52-.378 2.089 2.089 0 01-.425-1.476v-4.139a2.089 2.089 0 01.425-1.476 2.205 2.205 0 011.52-.38h4.686a2.204 2.204 0 011.521.38c.326.42.479.948.428 1.476v.776l-1.826.292v-1.492l-4.927-.002zm14.979 6.42h-1.826v-6.42h-3.605v-1.43h9.038v1.43h-3.607v6.42zm13.306-7.849c.441-.03.88.089 1.246.336a1.399 1.399 0 01.456 1.187v1.747a1.574 1.574 0 01-.412 1.156 2.264 2.264 0 01-1.352.365h-4.9v3.058h-1.825v-7.853l6.787.004zm-4.962 1.34v2.112h4.016a1.06 1.06 0 00.623-.12.587.587 0 00.2-.503v-.869a.575.575 0 00-.2-.5 1.074 1.074 0 00-.623-.12h-4.016zm9.781.516a2.084 2.084 0 01.427-1.476 2.206 2.206 0 011.521-.38h5.781a2.217 2.217 0 011.522.38c.324.42.477.948.426 1.476v4.14a2.089 2.089 0 01-.426 1.475 2.215 2.215 0 01-1.522.378h-5.78a2.206 2.206 0 01-1.521-.378 2.08 2.08 0 01-.427-1.476l-.001-4.139zm7.853 4.564v-4.99h-6.022v4.99h6.022zm7.377-.625l6.54-5.795h1.521v7.853h-1.825v-5.795l-6.54 5.795h-1.521v-7.853h1.825v5.795zm23.023-5.795v1.43h-5.566v6.42h-1.826v-7.854l7.392.004zm9.713 0a1.98 1.98 0 011.247.336 1.382 1.382 0 01.459 1.187v1.747a1.573 1.573 0 01-.412 1.156c-.402.262-.876.39-1.354.365h-4.898v3.058h-1.827v-7.853l6.785.004zm-4.958 1.34v2.112h4.02c.215.024.433-.018.623-.12a.58.58 0 00.196-.503v-.869a.584.584 0 00-.196-.5 1.08 1.08 0 00-.623-.12h-4.02zm11.541 2.052h5.417v-3.392h1.841v6.208c.022.46-.13.91-.427 1.262-.382.268-.842.4-1.308.378h-5.463a2.12 2.12 0 01-1.4-.378 2.089 2.089 0 01-.426-1.476v-.248l1.765-.333v1.003h5.417v-1.75h-5.416a2.197 2.197 0 01-1.34-.365 2.098 2.098 0 01-.426-1.49v-2.815h1.765l.001 3.396zm20.204-3.392v7.853h-1.831v-6.42h-5.471v6.42h-1.826v-7.853h9.128z"/><path d="M229.325 23.427l2.496-2.498h-2.496v2.498zM127.368 34.212v-.49a.353.353 0 00-.102-.28.36.36 0 00-.279-.106.39.39 0 00-.412.441v2.069a.388.388 0 00.412.441.36.36 0 00.381-.387v-.608h.97v.657a1.228 1.228 0 01-.436.853 1.23 1.23 0 01-.915.284 1.266 1.266 0 01-1.421-1.216v-2.117a1.26 1.26 0 011.421-1.216 1.233 1.233 0 011.351 1.137v.537h-.97zm9.078-1.564v.767h-.999v3.544h-.97v-3.544h-.997v-.767h2.966zm6.213.001v.483a.88.88 0 01.828-.593 1.077 1.077 0 011.131 1.207v2.129a1.105 1.105 0 01-1.131 1.216.87.87 0 01-.828-.586V38.4h-.971v-5.749l.971-.003zm0 1.209v1.94a.472.472 0 00.284.484c.062.027.128.04.195.04a.456.456 0 00.45-.313.469.469 0 00.02-.193v-1.97a.468.468 0 00-.02-.194.454.454 0 00-.45-.312.471.471 0 00-.479.518zm10.469.085v1.738a1.327 1.327 0 01-.423 1.073 1.317 1.317 0 01-1.103.334c-1.153 0-1.53-.657-1.53-1.407v-1.738c0-.75.377-1.405 1.53-1.405a1.32 1.32 0 011.437.82c.073.186.104.386.089.585zm-2.046-.127v1.992a.45.45 0 00.131.387.463.463 0 00.389.126c.318 0 .517-.111.517-.513v-1.992c0-.401-.199-.512-.517-.512a.455.455 0 00-.52.512zm8.485-1.168v2.574l1.043-2.574h.942v4.311h-.948v-2.542l-1.037 2.542h-.941v-4.311h.941zm10.165 0v.767h-.994v3.544h-.971v-3.544h-.997v-.767h2.962zm6.172 2.256v.939a.442.442 0 00.313.46c.064.02.132.026.198.016a.454.454 0 00.481-.28.466.466 0 00.033-.196v-.244h.97v.119c0 .97-.626 1.367-1.487 1.367-.86 0-1.483-.387-1.483-1.367v-1.816c0-.979.626-1.367 1.483-1.367.858 0 1.487.395 1.487 1.367v1.002h-1.995zm1.025-.71v-.418a.463.463 0 00-.146-.358.46.46 0 00-.368-.115c-.315 0-.511.156-.511.473v.422l1.025-.004zm9.54-1.546v4.311h-.971v-3.544h-.799v1.728c0 1.524-.423 1.896-1.002 1.896a1.822 1.822 0 01-.558-.08v-.71c.069.015.14.022.21.023.365 0 .405-.15.405-1.981v-1.644h2.715zm6.502 1.644h.625a1.262 1.262 0 011.303 1.323 1.269 1.269 0 01-.361.953 1.28 1.28 0 01-.942.39h-1.598v-4.312h.971l.002 1.646zm0 1.903h.317c.314 0 .599-.094.599-.577 0-.427-.278-.561-.599-.561h-.317v1.138zm8.393-1.903h.931v-1.644h.971v4.311h-.971v-1.903h-.931v1.903h-.97v-4.311h.97v1.644zm8.408 0h.625a1.268 1.268 0 011.223.812c.062.163.09.337.082.511a1.29 1.29 0 01-.362.954 1.28 1.28 0 01-.943.388H208.8v-4.31h.971l.001 1.645zm0 1.903h.318c.314 0 .599-.094.599-.577 0-.427-.278-.561-.599-.561h-.318v1.138zm3.529.764h-.971v-4.311h.971v4.311zm6.478-4.311v2.574l1.041-2.574h.94v4.311h-.947v-2.542l-1.034 2.542h-.953v-4.311h.953zm0-1.39c0 .372.218.403.504.403.309 0 .529-.047.529-.403h.52c0 .633-.325.97-1.034.97a.92.92 0 01-.736-.246.922.922 0 01-.282-.724h.499zm14.949 1.39l.491 1.193.492-1.193h1.072l-1.072 2.156 1.125 2.155h-1.125l-.492-1.235-.491 1.235h-1.129l1.127-2.155-1.072-2.156h1.074zm10.304 1.295v1.738a1.327 1.327 0 01-.935 1.366 1.326 1.326 0 01-.59.041c-1.154 0-1.532-.657-1.532-1.407v-1.738c0-.75.377-1.405 1.532-1.405a1.32 1.32 0 011.436.821c.074.186.104.385.089.584zm-2.044-.127v1.992a.45.45 0 00.131.387.456.456 0 00.388.126c.317 0 .514-.111.514-.513v-1.992c0-.401-.197-.512-.514-.512a.448.448 0 00-.389.125.454.454 0 00-.13.387zm10.608-1.168v4.311h-.97v-3.544h-.794v1.728c0 1.524-.428 1.896-1.005 1.896a1.856 1.856 0 01-.56-.08v-.71c.071.015.142.022.215.023.361 0 .401-.15.401-1.981v-1.644h2.713zm5.984 1.429v-1.43h2.685v3.547h.353v1.807h-.915v-1.043h-1.857v1.043h-.915v-1.807h.274c.314-.659.443-1.39.375-2.117zm1.715-.662h-.785v.99a3.551 3.551 0 01-.321 1.786h1.106v-2.776zm7.611-.767v2.574l1.041-2.574h.941v4.311h-.95v-2.542l-1.033 2.542h-.948v-4.311h.949zm8.486 1.644h.931v-1.644h.971v4.311h-.971v-1.903h-.931v1.903h-.97v-4.311h.97v1.644zm9.966-1.644v.767h-1.556v3.544h-.97v-4.311h2.526z"/></g><defs><clipPath id="ia"><path d="M0 0h101v60H0z"/></clipPath></defs></svg><svg viewBox="0 0 233 60" id="icon-client-ria" xmlns="http://www.w3.org/2000/svg"><g clip-path="url(#ja)"><path d="M32.32 7.069c.134-1.819.7-3.58 1.65-5.132.25-.428.528-.803.794-1.232a28.527 28.527 0 016.87 2.46 8.054 8.054 0 00-1.542 3.583 8.233 8.233 0 00.477 4.225 10.02 10.02 0 002.444 3.423 14.348 14.348 0 003.348 2.299 20.982 20.982 0 007.535 2.093c.528.052 1.06.052 1.593.052.105.321.266.695.371 1.07-.987.126-1.98.196-2.976.214-3.72.107-7.492-.373-10.945-1.605-3.455-1.292-6.643-3.376-8.337-6.424a8.387 8.387 0 01-1.282-5.026zm19.073 25.506c-6.056-.321-12.114-1.603-17.64-4.225a31.727 31.727 0 01-7.758-5.013c-2.336-2.098-4.356-4.61-5.578-7.553a17.215 17.215 0 01-1.223-9.35c.28-1.8.817-3.55 1.594-5.192a27.443 27.443 0 00-9.245 4.653c-.052.43-.106.91-.158 1.338a18.294 18.294 0 002.126 10.055c1.594 3.043 4.03 5.713 6.791 7.854a38.145 38.145 0 009.245 5.13c6.642 2.62 13.867 3.692 21.044 3.638a60.327 60.327 0 006.216-.374c.052-.32.107-.642.16-1.012a38.454 38.454 0 01-5.57.05h-.004zM28.44 20.332a29.367 29.367 0 007.014 3.955c5.05 1.978 10.575 2.833 16.063 2.727a48.802 48.802 0 005.631-.374 1.045 1.045 0 00-.053-.426c0-.163-.053-.322-.053-.484-1.436.054-2.87.054-4.304 0a34.55 34.55 0 01-12.61-3.102 25.12 25.12 0 01-5.521-3.588 17.059 17.059 0 01-4.094-5.4 11.912 11.912 0 01-.956-6.792 13.846 13.846 0 012.54-6.089c.093-.136.2-.262.32-.375A26.64 26.64 0 0026.21.171c-.851.054-1.646.213-2.445.32a16.71 16.71 0 00-1.858 6.257c-.26 2.62.258 5.26 1.488 7.582 1.115 2.365 2.93 4.397 5.046 6.002zm22.055 19.21c-7.76-.323-15.518-1.928-22.639-5.135a40.752 40.752 0 01-9.989-6.268c-3.03-2.568-5.635-5.67-7.334-9.351A21.87 21.87 0 018.526 8.574 28.75 28.75 0 00.5 25.382a28.831 28.831 0 003.94 18.223 28.518 28.518 0 0014.24 11.926 28.284 28.284 0 0018.512.581 28.417 28.417 0 0010.818-6.26 28.666 28.666 0 007.12-10.317c-1.55.049-3.095.047-4.635-.007v.013zM43.533 4.233a6.057 6.057 0 00-.753 2.781 4.31 4.31 0 00.753 2.458c.956 1.497 2.657 2.512 4.518 3.102 1.516.458 3.091.68 4.674.652a30.162 30.162 0 00-9.192-8.993zm55.385 48.591a10.266 10.266 0 01-4.154-3.971 10.808 10.808 0 01-1.498-5.666 10.809 10.809 0 011.496-5.665 10.914 10.914 0 014.156-3.968 12.34 12.34 0 015.989-1.45 12.002 12.002 0 015.941 1.452A10.59 10.59 0 01115 37.524a11.167 11.167 0 010 11.332 10.937 10.937 0 01-4.152 3.97 12.13 12.13 0 01-5.941 1.452 13.391 13.391 0 01-5.99-1.454zm9.368-3.681a6.32 6.32 0 002.368-2.419 7.625 7.625 0 000-7.068 6.334 6.334 0 00-2.368-2.422 7.188 7.188 0 00-6.858 0 6.352 6.352 0 00-2.364 2.42 7.625 7.625 0 000 7.07 6.336 6.336 0 002.368 2.422 6.822 6.822 0 003.418.873 6.693 6.693 0 003.436-.876zM86.454 7.226c-.724-1.162-1.786-2.034-3.19-2.664-1.404-.63-3.045-.914-4.927-.914h-9.22v21.304h4.927v-5.915h4.298c1.882 0 3.526-.29 4.928-.914a7.189 7.189 0 003.189-2.661 7.721 7.721 0 001.112-4.112 7.586 7.586 0 00-1.117-4.127v.003zm-3.814 4.165c0 1.16-.385 2.081-1.16 2.71-.775.627-1.931.968-3.38.968h-4.01V7.66h4.01c1.496 0 2.607.338 3.38.967.771.628 1.16 1.55 1.16 2.762v.002zm12.508-7.75h-4.876v21.352h4.635l10.143-13.897v13.897h4.879V3.642h-4.637L95.148 17.537V3.642zm33.616 16.753h-9.9l-1.884 4.599h-5.07l9.513-21.351h4.879l9.515 21.35h-5.168l-1.885-4.598zm-1.593-3.728l-3.383-8.184-3.379 8.184h6.762zM88.626 53.889V32.537h-4.922v8.424h-9.66v-8.424h-4.928V53.89h4.928v-8.763h9.66v8.763h4.922zm51.246-6.004c0-1.307-.337-2.374-1.013-3.244a6.008 6.008 0 00-2.947-1.89 4.951 4.951 0 002.22-1.883 4.952 4.952 0 00.774-2.812c0-1.742-.683-3.1-2.077-4.068-1.392-.97-3.329-1.45-5.793-1.45h-9.901v21.35h10.483c2.658 0 4.684-.532 6.135-1.6 1.397-1.015 2.122-2.515 2.122-4.404l-.003.001zm-9.273-6.536h-4.586v-5.228h4.589c1.062 0 1.834.24 2.415.684a2.475 2.475 0 01.821 1.936c0 .873-.289 1.5-.821 1.937-.53.436-1.353.671-2.415.671h-.003zm.821 3.426c2.317 0 3.477.873 3.477 2.665 0 1.84-1.16 2.76-3.477 2.76h-5.409v-5.415l5.409-.01zm17.292 8.041a10.264 10.264 0 01-4.155-3.971 10.815 10.815 0 01-1.496-5.666 10.815 10.815 0 011.496-5.667 10.904 10.904 0 014.155-3.968 12.312 12.312 0 015.99-1.44 11.988 11.988 0 015.94 1.452 10.588 10.588 0 014.154 3.968 11.157 11.157 0 011.544 5.666c0 1.994-.533 3.952-1.544 5.666a10.911 10.911 0 01-4.154 3.97 12.127 12.127 0 01-5.94 1.454 13.542 13.542 0 01-5.988-1.458l-.002-.006zm9.375-3.672a6.329 6.329 0 002.368-2.423 7.622 7.622 0 000-7.067 6.343 6.343 0 00-2.368-2.423 7.192 7.192 0 00-6.859 0 6.347 6.347 0 00-2.366 2.423 7.625 7.625 0 000 7.068 6.32 6.32 0 002.366 2.422 6.824 6.824 0 003.418.872 6.695 6.695 0 003.441-.872zm12.85-.242c1.022 1.648 2.453 3 4.151 3.922 1.786.968 3.72 1.402 5.941 1.402a12.884 12.884 0 005.014-.968 9.987 9.987 0 003.766-2.856l-3.19-2.905c-1.449 1.695-3.235 2.512-5.362 2.512a7.051 7.051 0 01-3.526-.873 6.47 6.47 0 01-2.415-2.42 7.616 7.616 0 010-7.07 6.474 6.474 0 012.415-2.42 7.05 7.05 0 013.526-.871c2.127 0 3.913.87 5.362 2.513l3.19-2.906a9.901 9.901 0 00-3.766-2.807 12.925 12.925 0 00-5.014-.97c-2.221 0-4.202.438-5.941 1.405a10.134 10.134 0 00-4.151 3.92c-1.015 1.648-1.498 3.538-1.498 5.667s.478 4.078 1.493 5.725h.005zm38.879-12.336h-6.811v17.332h-4.877V36.556h-6.769v-4.019h18.46l-.003 4.029zm8.742-4.019h-4.878v21.351h4.636l10.141-13.896v13.896h4.879v-21.36H228.7l-10.142 13.895V32.546z"/></g><defs><clipPath id="ja"><path d="M0 0h233v60H0z"/></clipPath></defs></svg><svg viewBox="0 0 225 60" id="icon-client-rt" xmlns="http://www.w3.org/2000/svg"><path d="M46.8 14.5v-.3l.1-.2-.2-.3-.2-.1v.3l-.1.2-.1.4.4.1.1-.1z"/><path d="M58.1 21.8c-.3-1-.6-1.9-.9-2.8v-.2c-1.4-3.6-3.4-6.9-6.1-9.7H51c-2.8-2.8-6.1-5.1-9.7-6.7C37.6.8 33.7 0 29.7 0s-7.9.8-11.6 2.3C14.5 3.9 11.2 6.2 8.4 9h-.1c-2.7 2.9-4.9 6.2-6.3 9.9v.1c-.1.1-.1.1-.1.2-.3.9-.6 1.7-.8 2.6-1.5 5.5-1.4 11.3.3 16.7v.1c1.8 5.9 5.5 11 10.4 14.7 5.1 3.8 11.2 5.9 17.6 5.9 6.4 0 12.6-2 17.7-5.8 4.9-3.6 8.5-8.6 10.5-14.4 1.8-5.5 2-11.4.5-17.2zM25.5 1.3h.3l-.1-.2c.3 0 .5-.1.8-.1l.2.1 1-.1 1.4.2h.1V2c-1.1 0-2.2.1-3.2.3l-.3-.3v-.3l-.3-.1.1-.3zM29.1 4v.5l-.6-.1v-.3l.1-.2h.3l.2.1zm-3.7-.5l.9-.2.1-.3c.3 0 .6-.1.9-.1l.2.1-.3.6v.6l-.2.4h-.4l-.2-.1.2-.2-.2-.1v-.3l-.2-.2-.3.1-.2.3-.3-.3v-.3zm0 2l.3.2.4-.1.6.4.9.2.2-.2.7-.1.2.1.4-.1v.2h-.4l-.8.1-.4.3.3.4.2.2-.4.4V8l-.7-.3-.8-.4-1.1.5-.4-.2c-.9-1.1-1.8-2.2-2.8-3.2.3-.1.5-.2.8-.3l-.2.6.1.3.4-.2 1.1.3.8.4h.6zM12 22.6l-.4.5-.2.1c-.1-.4-.1-.7-.2-1.1l.7-.2 1.2.3.3-.2h.4l.3.3-.3.6-1-.3H12zm.4 3c-.1 0-.1.1-.2.1-.1-.1-.1-.1-.1-.2l.3.1zm-4.9-2.2l-.1-1.2.2-.5-.7-1.6-.6-.1-.1-.5.6-.1h.4l.1-.3c1-.4 2.1-.8 3.2-1.1-.1.3-.1.6-.1.9l-.3.2-.6.3-.2.6.5 1-.4.2-.4-.3-.1-.3-.2-.1-.3 1.1-.3.3.4 1.2.6.3.7-.4.2.2.6-.1c.1.4.2.7.3 1.1l-.1.1.1.1c.1.2.1.4.2.6l-.4-.5-.4.3-.1.4-.4-.1.1-.4-.3-.1-.4.1-.3.3-.4.3v.6l-.2.2-.3-.6v-.7l.1-.1v-.5l-.6-.8zm9.4-13.9l-.1.1c-.7-.2-1.3-.4-2-.5.6-.7 1.3-1.3 2-1.9l.1 1-.1.6.1.7zm0 .9l.2 1 1.4.1.6.6.6-.1.6.2.3.3.6-.1 1.5.6.5.6.7-.3.2-.2c1.3.6 2.5 1.1 3.8 1.7-5.6 0-11.2.6-16.7 1.9.5-2.5 1.6-4.9 3.2-6.9.8.1 1.6.4 2.5.6zm2.7-5c.4-.3.8-.5 1.3-.7.5.6 1.1 1.2 1.8 2h-.5l-.4-.5h-.7l-.2-.5-.4-.2h-.6l-.3-.1zm3.1 1.3c.2.2.3.4.5.6l-.2-.1-.3-.5zm3.1 4.6l.2-.1.1-.1c.7 1 1.4 2 2.2 3.1-1-.5-2-1-3-1.4l.6-.7.1-.3-.2-.5zm1.9 4.2c-3.5 1.8-6.9 3.9-10.2 6.1l.1-.5-.5-.6-1.1-.7-1.5-.4-2.1-.2-.6-.3-.5-.5-.4-.2h-.1c0-.2.1-.5.1-.7 5.5-1.3 11.1-2 16.8-2zm-10.9 6.8c-.6.4-1.2.9-1.8 1.3l.3-.5 1.1-1 .4.2zm-2.4 1.6c-.1.1-.2.1-.3.2l.1-.1.2-.1zm-4.6 3.4l1-1.3.5-.3.1-.1c.1.2.1.4.2.6l-1.8 1.5v-.4zm18.5-11.2c-3.6 5.7-6.9 11.6-9.6 16.9-2.6-1.6-4.8-3.9-6.2-6.7 5-3.9 10.3-7.3 15.8-10.2zm.8.4v19.6c-3.4 0-6.8-.9-9.7-2.6 2.9-5.6 6.3-11.7 9.7-17zm-2.4-6l.1-.1v.1l.6.3 1.3-.3.4-.3v3.7c-.9-1.2-1.6-2.4-2.4-3.4zM21 3.1l1 .1.1-.2.9-.5.4.4.5-.1h.1c-.5.1-.9.2-1.4.4l-.3.1c-.4.2-.8.3-1.2.5-.3-.3-.6-.5-.8-.7h.7zm-4 .6l.4-.1.2-.1h.3l.6-.1.5-.1.2-.1c.4.3.7.6 1.1.9-.8.3-1.5.7-2.2 1.2h-.5l-.5.4-.6.2-.4.4.3.3c-.9.7-1.7 1.5-2.4 2.4-1.4-.3-2.9-.4-4.3-.3 2.2-2.1 4.7-3.8 7.3-5zm-8.3 6c1.5-.4 3.1-.4 4.7 0-1.7 2.1-2.8 4.6-3.2 7.3-.8.2-1.6.5-2.3.7l.3-.3.4-.2.5-.1.1-.6.4.3.2-.8-.4-.2h-.5l-.3.2-.3-.1.1-.3-.5-.5-.4.2-.3-.2-.2.6v.6l.4.2.4-.4v.6l-.3.3-.3-.4-.2-.1-.3.3-.4-.2-.2.4.1.2-.1.4v.3h-.3v-.6l-.4.3-.3.7-.4.6-.6.3.5-2.1v-.7l-.5.6-.3.1-.5.5c1.4-2.9 3.2-5.6 5.4-7.9zM3 18.3v.2h-.1c0-.1 0-.1.1-.2zm-.3 15.6l-.2-1.1-.3-1-.3-.2-.3-1.8.1-.4v-2.5l.3-.2v-.2l.2-.5-.1-1 .1-3.2.3-.5H3v.4l.2.4.2-.2v.4l-.1.9.3.7v.7L3 25.9l-.2 1.6h-.4v-.7l-.3.2v1.6h.4l.5.4.3-.2.1-.5.1-.6.3-1.5.2-.4.1-.5.2.1v.4l-.1.4-.1 1.7-.2 1.1-.5.7-.4 1.5.2 1.1.5-.4.4.9-.3 1c-.3.4-.6.7-.8 1.1l-.3-1zm1.8 3l.5.5.5.1-.2.5-.8.3-.3-.4-.4-1-.5-.7-.1-.3c.2-.4.4-.7.7-1.1l.1.2.3.3.2.4 1 1.3-.1.3-.5-.4-.1-.4-.4-.4v.5l.1.3zm3.5-.5l-.1.3.2.6-.5.2-.6-.7-1-2.3-.7-.6-.2-.7c.4-.4.8-.9 1.2-1.3h.3l.1.4.2.7.3.1.2.4.1.3v-.1l.5.2.2.3.6.2.1-.1.2.1.5-.1.4-.2-.4-.8-.4-1.2v-.7l.3-.6-.5-.6.6-.7.2-.5c.7-.7 1.5-1.3 2.3-2 1.5 2.8 3.8 5.2 6.5 6.9-.8 1.7-1.6 3.3-2.3 4.9l-.2-.3-.6-.4H15l-.9-1.5-.5-.4h-1l-.3.3-.7-.1-.4.2.1.6.2.2v.9l.3.3.5.1.2.3.4.3-.1.3-.2.3-.6-.5-.2.3-.3.3v.6l.2.6v.1l-.2.2v.6l-.2.3v.4l.3.4-.2.7-1.1-.9-.5-.8v-.5l.8-.4-.3-1.1-.1-.1v.1h-.4l-.1-.2-.6-1.6-.2-.1-.3-.8-.6-1.1zm9.1 2.7l-.2.2-.2-.1c0-.2.1-.3.2-.5l.2.4zm-5.5 13.1c-.9-.8-1.8-1.6-2.7-2.5h.6l.2-.1.6-.1.6.5.3.1.3.2.3.1c-.1.6-.2 1.2-.2 1.8zm.5-3.1l-.2-.2-.3-.8-.9-.2-.9-.8-.2-.6-.4-.2V46l-.2-.4.6.6v.1l.4.4 1.4 1.1.3.1c.1 0 .1.1.2.1v.5l.3.3c0 .1-.1.3-.1.3zm17.1 9.2c-6-.1-11.9-2-16.7-5.6-.1-.7-.1-1.5.1-2.2h.6v-.2l-.2-.2-.3-.4c0-.1.1-.2.1-.3l2.6 1.7.9.4.6.6 1 .7.6.7 1.1.3.1.4.4.7 1.9 1.3 1.6.3.2.2 1 .2.2-.1-1-.5-.2-.3H25l2.4-.4.4-.3h1.4v3zM29 43.4l-.7.1-.2-.4h-.6l-.9-1-.7.1-.9-.2-1.2-2.5-1 .2-1.2-1.5-.7-.4-.4.1-1.3-.1-1.5-.5-.1.7-.4.1c0-.1.1-.1.1-.2.5-1.2 1.2-2.4 1.8-3.7 3 1.7 6.5 2.7 10 2.7l.2 6.4-.3.1zm27.1-8.3c-2.4-3.4-5.4-6.3-8.7-8.8 1.2-2.6 1.7-5.5 1.4-8.4 4.1 1.1 6.9 2.6 8.3 4.1.8 4.4.5 8.9-1 13.1zm-13.8 4.5l-.4.7-1 .3-1.6 1-.3.3-1 .3-.8-.4-1.4.5-.7-.1-.2-.5-1.5-.2-.4.7.2.3-.4.5-1.1-.1-.3-.3-.9-.2-.6.3v-5.8c3.5 0 6.9-1 10-2.7.5 1.1 1 2.2 1.5 3.2.3.6.6 1.1.8 1.7v.2l.1.3zm-12.4-3.5V16.5c3.6 5.5 6.8 11.1 9.7 17-3 1.6-6.3 2.6-9.7 2.6zm.8-19.9c5.5 3 10.8 6.4 15.8 10.3-1.5 2.7-3.6 5-6.2 6.6-2.9-5.8-6.1-11.5-9.6-16.9zm.4-.7c5.7.1 11.4.7 16.9 2.1.4 2.8 0 5.6-1.2 8.1-4.9-3.8-10.2-7.2-15.7-10.2zm25.2 3.8c.2.4.3.8.4 1.2-2.5-1.7-5.2-2.9-8.1-3.6-.2-1.1-.5-2.2-.9-3.2l.2-.5-.4-.4.1-.2-.1-.4h.4l-.1-.3-.3-.4.1-.4 2.2 2.3.2-.1-.4-.6-1.2-1.4-.7-.6-.2-.1-.1-.6-.7-.5c1.3-.1 2.5 0 3.7.3 2.6 2.8 4.7 6 5.9 9.5zM42.8 4.2c.1 0 .2.1.3.2v-.1l.1.1c2.2 1.2 4.3 2.7 6.2 4.5-1.4-.2-2.8-.1-4.1.1l-.1-.2-.2-.2-.2.1-.2-.2-.3-.7-.3-.3-.4-.6-.4-.8-.6-.5.1-.2-.3-1.3.4.1zm3.8 5.2v.2l-.2.1-.5-.1c.3 0 .5 0 .7-.2zm-5.3 2v.2l.9.7h.3l.3.2.2.4.5.2.4-.7.2.2.9 1 .5-.4v-.4l-.2-.4.2-.2.3.2.2.4.7.3c.6 1.2 1 2.4 1.2 3.7-5.5-1.3-11.1-2-16.7-2 3.1-1.5 6.3-2.8 9.6-3.9v.3l.5.2zm-5.7-5.9l.4.2c-.1.2-.3.3-.4.5l-.1-.4.1-.3zm-.1 2.4v-.5l1-.4-.2-.6.3-.3.1.1 1.3 1 1 .4.5.5.3.8.3.2.4.9.1.1c-3.4 1.1-6.8 2.5-10 4.1 1.7-2.5 3.3-4.6 4.7-6.4l.2.1zM30 1.3h.2l.5.6-.4.2H30v-.8zm-.1 3.4l.3.6-.3.4v-1zm-.2 1.4v-.3l.2.1.2.5.3.1.2-.3-.1-.3.4-.1.3.2.6-.3.1-.2-.4-.4-.8-.1.2-.5.4.1.2-.2v-.5l.6.1.1.2-.3.5.4.4v.6l-.1.5.3.1 1-.2.3.4h.3l.3.7.3.2c-.1.2-.3.3-.4.5h-.1l-.2-.1.3-.3-.3-.2-.2-.4-.4-.1-1.2-.1-.2.2-.1.3.3.1v.3l.2.2.3-.2h.2l.4.4-.3.5.6.1h.1c-1.2 1.5-2.5 3.3-3.8 5.3V9.6l.1-.1.3-.6v-.2l-.1-.2-.1-.4h.3v-.5l-.1-.3V7l-.1-.2-.4-.2-.1-.5zm16.7 46.7c-4.8 3.5-10.6 5.4-16.5 5.5v-3.1l.5-.1.1.2.6.3.5.6h.9l1-.3.5.5-1.7.5v.3l4.4-.8-.1-.3-.9.2-.5-.1.8-.2 1.3-.1h.5l1.4-.6.9-.4-.1-.5-.8.1-.2-.5.7-.4.7-.2.1.1-.6.4.5.2.5-.3.5-.5-.3-.2 1.5-.9h.2l1.6-1.2 1.1-1.2.5-.9c0 .2.1.3.1.5l-.5.7.1.2.3.1.3-.2c0 .2.1.4.1.5l-.2.1-.3.2-.2.3-.3.3v.2l-.3.3.1.6 1.3-.7c0 .3 0 .6-.1.8zm-2.7-7.4l.4-.3.2-.5.2-.1c.1.3.2.6.3.8l-.2.3-.4-.1-.4.2-.1-.3zm1.2 1.1l.2-.3c0 .1.1.3.2.5h-.1l-.3-.2zm1-.6c-.1-.1-.1-.3-.2-.5l.3-.3-.1-.1-.3.2c-.1-.2-.1-.3-.2-.5l.2-.2.7-.9.4.2-.1.5.4.1.2-.2.5.5v.3l.2.3.4-.4.6-.8.1-.4-.4-.7-.8-.2-.1-.1.6-1.2-.2-.3.1-.5.1-.2-.2-.3.2-.2-.5-.9.6-.8-.3-2.2-.6 1.1-.5.5-.9-.4-.7.3-1.4-1.2-1.4.5-.3.4c0-.1-.1-.2-.1-.3-.4-1-1-2.1-1.5-3.2 2.8-1.7 5-4.1 6.5-6.9 4.9 4 7.5 6.9 8.7 9-1.9 4.7-5.2 8.8-9.4 11.7-.2-.5-.4-1.1-.6-1.7zm1.3 6.3c.1-.3 0-.6 0-.9l.7-.7-.1-.2-.6.2c-.1-.7-.3-1.5-.5-2.2 4.2-2.9 7.5-6.9 9.6-11.6.3.6.4 1.3.5 2-1.8 5.3-5.1 10-9.6 13.4zm11.1-23.6v1c0 2.6-.3 5.2-1 7.7-.1-.5-.4-1-.6-1.4.9-2.3 1.4-4.8 1.6-7.3z"/><path d="M51 42.1l.4-.2.3-1 .8-1.4-.1-1.1-.2-.3.1-.7-.7-.7-.1-.4.6-.3.3-1.5-.5-.5-.5.9h-.7l.4 1.2-.3.4.1.6.7 1.1-.3 1.9-.3.1-.1 1.1-1 1.1-1 2 .5.4.4-.2 1.2-2.5zM32.5 8.6l.4-.3-.2-.3h-.4l-.4.4.3.3.3-.1zm-11.6 8.8v.6l.6.3.5-.4 1-.1.2-.8-1.2-1.1-1.5.9-.4.5.1.3.7-.2zM43.3 5.1l.2.1.1-.2-.1-.1-.1-.3-.2-.2c-.1 0-.1-.1-.2-.1l-.2.3.5.5zM2.9 25.2l.4-.5.1-.6h-.2L3 24l-.2.5-.3.3-.1.3.1.5.4-.4zM30.8 7.8v.6l.6.4.3-.6-.6-.3-.3-.1zm-17.6 4.1v1l.3.3.8-.3.4-1.1v-.3l.5-.3.1-.4-.5-.4-.8.4-.8 1.1zm17.9-4.5l.4-.1.1-.5-.5-.4-.2.1-.3.6.2.3h.3zm123.4 17.1c1.8.1 3.7-.3 5.3-1 1.6-.7 3-1.7 4.2-3.1l-2.4-2.5c-.8 1-1.9 1.7-3.1 2.2-1.2.5-2.5.8-3.8.7-1.1.1-2.2-.1-3.2-.5s-2-.9-2.7-1.7c-.8-.7-1.4-1.6-1.8-2.6-.4-1-.6-2-.5-3.1 0-4.7 3.2-7.8 8.1-7.8 1.2 0 2.4.2 3.5.6 1.1.5 2.1 1.1 2.9 2l2.7-2.4c-1.6-2.3-5-3.9-9.3-3.9-1.6-.1-3.2.2-4.7.8-1.5.6-2.9 1.4-4 2.5s-2 2.4-2.6 3.8c-.6 1.4-.9 3-.8 4.5 0 7 4.7 11.5 12.2 11.5zM81.4 1.8h-9.6v22.5h4.1v-7.7h5.5c7.4 0 9.9-3.7 9.9-7.4 0-3.6-1.9-7.4-9.9-7.4zm-.1 11.1h-5.4V5.4h5.6c4.1 0 5.5 1.5 5.5 3.7 0 2.4-1.7 3.8-5.7 3.8zm102-4.2v15.6h4.1V1.8h-3.5l-13 15.6V1.8h-4.1v22.5h3.4l13.1-15.6zm23.4 15.6h4.1V1.8h-9.7c-6.5 0-9.6 3.2-9.6 7.3 0 3.4 2.1 5.7 5.7 6.6l-7.3 8.6h4.9l6.7-7.9h5.2v7.9zm-6.2-11.6c-2.9-.1-4.7-1.6-4.6-3.6 0-2.2 1.4-3.7 5-3.7h5.9v7.3h-6.3zm-68.7 11.9c1.8.1 3.7-.3 5.3-1 1.7-.7 3.1-1.8 4.3-3.2l-2.4-2.5c-.8 1-1.9 1.7-3.1 2.2-1.2.5-2.5.8-3.8.7-1.1.1-2.2-.1-3.2-.5s-2-.9-2.7-1.7c-.8-.7-1.4-1.6-1.8-2.6-.4-1-.6-2-.5-3.1 0-4.7 3.2-7.8 8.1-7.8 1.2 0 2.4.2 3.5.6 1.1.5 2.1 1.1 2.9 2l2.7-2.4c-1.6-2.3-5-3.9-9.3-3.9-1.6-.1-3.2.2-4.7.8-1.5.6-2.9 1.4-4 2.5s-2 2.4-2.6 3.8c-.6 1.4-.9 3-.8 4.5-.1 7 4.7 11.6 12.1 11.6zM113.9 4.8c-2.3-2.2-5.4-3.4-8.6-3.4-3.2 0-6.3 1.2-8.6 3.4s-3.6 5.1-3.6 8.2c0 3.1 1.3 6 3.6 8.2 2.3 2.2 5.4 3.4 8.6 3.4 3.2 0 6.3-1.2 8.6-3.4s3.6-5.1 3.6-8.2c0-3.1-1.3-6-3.6-8.2zM112.7 16c-.4.9-1 1.8-1.7 2.5s-1.6 1.3-2.6 1.7c-1 .4-2 .6-3.1.6s-2.1-.2-3.1-.6c-1-.4-1.9-1-2.6-1.7-.8-.7-1.3-1.6-1.7-2.5-.4-1-.5-2-.5-3-.1-1 .1-2 .5-3 .4-.9 1-1.8 1.7-2.5s1.6-1.3 2.6-1.7c1-.4 2-.6 3.1-.6s2.1.2 3.1.6c1 .4 1.9 1 2.6 1.7.8.7 1.3 1.6 1.7 2.5.4 1 .5 2 .5 3s-.1 2.1-.5 3zm102.2 17c-6.5 0-9.6 3.2-9.6 7.3 0 3.4 2.1 5.7 5.7 6.6l-7.3 8.6h4.9l6.7-7.9h5.3v7.9h4.1V33h-9.8zm5.7 10.9h-6.3c-2.8-.1-4.6-1.6-4.6-3.6 0-2.2 1.4-3.7 5-3.7h5.9v7.3zM98.2 45.8h12.6v-3.5H98.2v-5.7h13.5v-3.7H94.1v22.6H112v-3.7H98.2v-6zm31.1-12.9h-13.4v22.6h4.1V36.6h9.3v-3.7zM85.7 51.2c-1.2.5-2.5.8-3.8.7-1.1.1-2.2-.1-3.2-.5s-2-.9-2.7-1.7c-.8-.7-1.4-1.6-1.8-2.6-.4-1-.6-2-.5-3.1 0-4.7 3.2-7.8 8.1-7.8 1.2 0 2.4.2 3.5.6 1.1.5 2.1 1.1 2.9 2l2.7-2.4c-1.6-2.3-5-3.9-9.3-3.9-1.6-.1-3.2.2-4.7.8-1.5.6-2.9 1.4-4 2.5s-2 2.4-2.6 3.8c-.6 1.4-.9 3-.8 4.5-.1 7.1 4.7 11.6 12.1 11.6 1.8.1 3.7-.3 5.3-1 1.7-.7 3.1-1.8 4.3-3.2L88.8 49c-.8 1-1.9 1.7-3.1 2.2zm89.3.7V33h-16.8v3.3c0 10-1 13.4-2.6 15.6h-2.5v7.6h4v-4H174v4h4v-7.6h-3zm-4.1-.1h-11c1.5-2.6 2.3-6.8 2.3-13.8v-1.4h8.7v15.2zm-21.1-15.6c-2.3-2.2-5.4-3.4-8.6-3.4-3.2 0-6.3 1.2-8.6 3.4-2.3 2.1-3.6 5-3.6 8.1 0 3 1.3 5.9 3.6 8.1 2.3 2.2 5.4 3.4 8.6 3.4 3.2 0 6.3-1.2 8.6-3.4 2.3-2.1 3.6-5 3.6-8.1 0-3.1-1.3-6-3.6-8.1zm-1.2 11.1c-.4.9-1 1.8-1.7 2.5s-1.6 1.3-2.6 1.7c-1 .4-2 .6-3.1.6s-2.1-.2-3.1-.6c-1-.4-1.9-1-2.6-1.7-.8-.7-1.3-1.6-1.7-2.5-.4-1-.5-2-.5-3 0-1.1.1-2.1.5-3 .4-.9 1-1.8 1.7-2.5s1.6-1.3 2.6-1.7c1-.4 2-.6 3.1-.6s2.1.2 3.1.6c1 .4 1.9 1 2.6 1.7.8.7 1.3 1.6 1.7 2.5.4 1 .5 2 .5 3 .1 1-.1 2-.5 3zm48.6-5h-12.4V33h-4.1v22.5h4.1v-9.6h12.4v9.6h4.1V33h-4.1v9.3z"/></svg><svg viewBox="0 0 181 60" id="icon-client-samsung" xmlns="http://www.w3.org/2000/svg"><g clip-path="url(#la)"><path d="M180.2 13.3c-.8-3.4-3.9-6.2-9.3-8.4-5.2-2.1-12.3-3.6-21.1-4.4C131.7-1 108.5.6 84.5 5 64 8.8 45.1 14.1 30.2 20.3h-.8s-3.6.2-4.9 2.2c0 0-.1.1-.2.4-.6.3-1.2.6-1.8.8C14.7 27.5 8.8 31.3 5 35.1c-4 4-5.6 7.8-4.8 11.3.8 3.4 4 6.3 9.7 8.6 5.4 2.2 12.7 3.6 21.8 4.4 4.7.4 9.7.6 14.9.6 15.5 0 33.3-1.7 51.4-5 20.2-3.7 38.8-9.2 53.5-15.6h.6c3-.3 3.9-1.3 3.9-1.3.6-.4.8-.9 1-1.2.7-.3 1.3-.6 2-1 7.4-3.8 13.1-7.7 16.8-11.5 3.6-4 5.1-7.7 4.4-11.1zm-5.3 10.3c-3.6 3.8-9.2 7.6-16.5 11.3l-1.2.6c.1-.5.1-1.1.1-1.1v-5.6h-6.1v2.7h1.3v2.8c0 1.4-1.2 1.4-1.2 1.4-1.4 0-1.4-1.3-1.4-1.3v-9.9c0-1 1.3-1.1 1.3-1.1 1.2 0 1.2 1.2 1.2 1.2v1.5h4.7c.2-2.9-.4-3.6-.4-3.6-1-2.3-4.6-2.5-5.4-2.5h-.2c-6.8 0-6.1 5.3-6.1 5.3v9.5c.1 2.9 2.4 3.9 4.3 4.2-14.3 6.1-32.2 11.2-51.6 14.8-24.1 4.4-47.6 6-66 4.5-9-.8-16.2-2.2-21.5-4.3-5.3-2.1-8.3-4.8-9-7.9-.7-3.1.8-6.5 4.5-10.2 3.8-3.7 9.5-7.5 17.2-11.2.4-.2.7-.3 1.1-.5v2.3s-.1 1.6.8 2.7c0 0 .5.7 1.6 1.4 0 0 2.4 1.3 3.8 2 0 0 1.4.8 1.2 2.1 0 0-.1 1.3-1.5 1.3 0 0-1.3-.1-1.3-1.4V33h-5v2.2s-.1 4.3 6.3 4.3c0 0 6.2.1 6.5-4.4v-1.8s.2-2.8-2.2-4.2c0 0-1.3-.8-2.1-1.1 0 0-2.5-1.1-3-1.7 0 0-1-.9-.4-2 0 0 .2-.7 1.2-.7 0 0 1.3.1 1.3 1.2v1.5h4.7V24s.3-2.9-3.7-3.7C46.8 14.7 65 9.6 84.7 6c17.9-3.3 35.3-5 50.5-5 5.1 0 10 .2 14.5.6 8.7.8 15.7 2.2 20.8 4.3 5.1 2.1 8 4.7 8.7 7.7.7 3-.8 6.4-4.3 10z"/><path d="M96.3 29.1s-1.3-.8-2.1-1.1c0 0-2.5-1.1-3-1.7 0 0-1-.9-.4-2 0 0 .2-.7 1.3-.7 0 0 1.3.1 1.3 1.2v1.5h4.7V24s.4-3.7-5.6-3.9h-.8c-1.4 0-4.3.3-5.3 2.2 0 0-.5.6-.5 2.5v1.4s-.1 1.6.8 2.7c0 0 .5.7 1.6 1.4 0 0 2.4 1.3 3.8 2 0 0 1.4.8 1.2 2.1 0 0-.1 1.3-1.5 1.3 0 0-1.3-.1-1.3-1.4V33h-5v2.2s-.1 4.3 6.3 4.3c0 0 6.2.1 6.5-4.4v-1.8c.2 0 .4-2.7-2-4.2zm-52.1-8.2l-3.1 18h5l1.9-14h.4l1.8 14h5.1l-3.1-18h-8zm27.9-.1l-1.6 9.9h-.4l-1.5-9.8h-7.9l-.4 18H65V25.3h.4l2.5 13.6h4.9l2.5-13.6h.3l.1 13.6h4.7l-.5-18.1h-7.8zm62.2 11h-.2l-4.8-11h-5.8v18.1h4.7l-.3-11h.2l5 11h5.6V20.8h-4.8l.4 11zM112 34.4s.1 1.5-1.3 1.5c0 0-1.4.1-1.4-1.4V20.9h-5.1v13.5s-.5 5.1 6.7 5.1c0 0 6.3.1 6.3-4.9V20.8h-5v13.6h-.2z"/></g><defs><clipPath id="la"><path d="M0 0h180.4v60H0z"/></clipPath></defs></svg><svg viewBox="0 0 104 60" id="icon-client-tkc" xmlns="http://www.w3.org/2000/svg"><path d="M84.143 27.813a12.589 12.589 0 01-3.069-.647 10.219 10.219 0 01-3.575-2.097 9.952 9.952 0 01-2.385-3.395 11.557 11.557 0 01-.887-4.632V.077h-9.084V18.1c0 .494.035 1.126.111 1.904.097.912.275 1.814.531 2.694.31 1.067.713 2.105 1.205 3.101a15.939 15.939 0 002.173 3.284 19.783 19.783 0 003.311 3.064 21.15 21.15 0 004.76 2.603l.141.047c1.952.56 3.944.968 5.958 1.222 1.127.138 2.26.203 3.395.192.546 0 1.092 0 1.645-.02l.805-.012 4.138-.434V.076h-9.173v27.736zm19.553-.381h-8.434v14.003h8.434V27.432zm-42.992 4.469a42.066 42.066 0 00-1.045-3.047 47.897 47.897 0 00-1.582-3.649 28.234 28.234 0 00-2.242-3.815 23.374 23.374 0 00-2.963-3.457 10.752 10.752 0 00-.69-.607 23.35 23.35 0 002.685-3.153 28.11 28.11 0 002.222-3.817 45.737 45.737 0 002.627-6.694c.262-.889.435-1.516.528-1.914l.302-1.671h-9.383l-.111 1.069a23.882 23.882 0 01-1.408 4.592 16.42 16.42 0 01-2.432 4.094 12.056 12.056 0 01-3.355 2.852 7.148 7.148 0 01-1.637.674V.077h-9v35.528h9.007v-13.58c.92.12 1.81.415 2.617.871a12.059 12.059 0 013.356 2.845 16.42 16.42 0 012.43 4.094 23.881 23.881 0 011.407 4.592l.227 1.18h9.383l-.413-1.782a45.795 45.795 0 00-.53-1.924zM18.916 8.27V0H0v7.914h9.711v27.659h9.215V8.269h-.01zM28.928 0H20.98v7.914h7.948V0z"/><path fill-rule="evenodd" clip-rule="evenodd" d="M0 41.481h103.951V60H0V41.481zm17.53 11.035h-1.248l.015-6.837H13.94v6.793h-3.43v-6.793H8.148v8.54h7.277v3.065h2.106v-4.767zm8.599 1.797a4.385 4.385 0 01-3.225-1.142 4.306 4.306 0 01-1.166-3.228 4.747 4.747 0 011.077-3.327 3.828 3.828 0 012.99-1.177 3.758 3.758 0 012.82 1.032 3.902 3.902 0 01.997 2.859v1.132h-5.537c-.01.575.2 1.132.589 1.556a2.076 2.076 0 001.544.56c.492.002.982-.053 1.46-.165a7.109 7.109 0 001.436-.5v1.806c-.414.207-.853.36-1.306.454a8.225 8.225 0 01-1.68.14zm-.33-7.213h-.01a1.533 1.533 0 011.177.474c.31.372.47.847.448 1.332H24.14a2.18 2.18 0 01.499-1.332 1.495 1.495 0 011.15-.474h-.01.02zm11.07 1.808v-3.229h-2.301v8.395h2.326v-3.459h3.25v3.459h2.325v-8.395h-2.35v3.229h-3.25zm18.44-3.229v1.722h-2.872v6.673h-2.395v-6.673H47.16v-1.722h8.149zm7.997 8.442c.433.192.907.282 1.383.262a3.136 3.136 0 001.806-.508c.55-.392.97-.93 1.204-1.549.307-.775.457-1.6.44-2.43a5.325 5.325 0 00-.895-3.279 2.904 2.904 0 00-1.091-.892 3.032 3.032 0 00-1.4-.29 2.94 2.94 0 00-1.457.309 2.802 2.802 0 00-1.093.974h-.11l-.346-1.122h-1.994v12.429h2.45v-3.496c0-.11-.042-.528-.126-1.252h.126c.292.362.67.651 1.103.844zm-.074-6.667c.23-.093.48-.131.73-.112v-.02c.257-.013.512.044.737.163.226.12.413.296.54.51.306.593.445 1.252.403 1.912 0 1.74-.548 2.61-1.644 2.61a1.594 1.594 0 01-.765-.13 1.527 1.527 0 01-.6-.473 3.556 3.556 0 01-.43-2.012v-.252a3 3 0 01.434-1.775 1.56 1.56 0 01.595-.42zm8.373-1.775h2.548l1.613 4.826c.153.487.248.99.283 1.499h.045c.054-.51.165-1.013.329-1.499l1.582-4.826h2.489l-3.608 9.682a4.211 4.211 0 01-1.419 1.998 3.559 3.559 0 01-2.15.665 5.217 5.217 0 01-1.184-.13V56.04c.3.068.607.102.915.1.395.005.78-.129 1.085-.38.343-.307.593-.705.722-1.148l.134-.42-3.384-8.513zm22.002 8.395h2.195v-8.37h-3.204l-1.537 3.673c-.11.274-.216.578-.312.905a31.71 31.71 0 00-.396 1.62c-.062-.434-.15-.864-.266-1.287-.114-.45-.257-.893-.427-1.326l-1.487-3.61h-3.235v8.395h2.21v-6.59l.146.49c.187.786.424 1.56.708 2.318l1.552 3.782h1.673l1.507-3.752a20.49 20.49 0 00.748-2.398l.126-.464v6.614z"/></svg><svg viewBox="0 0 40 40" id="icon-close" xmlns="http://www.w3.org/2000/svg"><path d="M30 10L10 30m0-20l20 20"/></svg><svg viewBox="0 0 50 50" id="icon-envelope" xmlns="http://www.w3.org/2000/svg"><g clip-path="url(#oa)"><path d="M24.875 23.137c-5.232 0-9.492 4.26-9.492 9.492 0 2.879 1.328 5.58 3.637 7.416v8.939c0 .339.178.65.49.847.187.115.4.178.615.178.187 0 .365-.045.544-.125l4.215-2.166 4.34 2.175c.357.178.74.17 1.043-.018.295-.178.473-.508.473-.864v-8.967c2.308-1.835 3.636-4.527 3.636-7.415 0-5.231-4.26-9.492-9.5-9.492zm7.344 9.492c0 4.047-3.297 7.344-7.344 7.344-4.046 0-7.344-3.297-7.344-7.344 0-4.117 3.227-7.344 7.344-7.344 4.118 0 7.344 3.227 7.344 7.344zm-11.051 8.672c1.22.535 2.53.82 3.707.82s2.496-.294 3.708-.82v5.918l-3.209-1.666c-.25-.125-.623-.125-1.007 0L21.16 47.21v-5.909h.009z"/><path d="M48.743 0H1.132C.535 0 0 .472 0 1.016v34.403c0 .633.517 1.016 1.016 1.016h11.631c.633 0 1.016-.383 1.016-1.016 0-.669-.419-1.132-1.016-1.132h-10.5V2.148h45.464v32.13H37.112c-.543 0-1.016.535-1.016 1.132 0 .633.517 1.016 1.016 1.016h11.631c.5 0 1.016-.383 1.016-1.016V1.132C49.76.463 49.34 0 48.743 0z"/><path d="M37.522 9.492c0-.544-.535-1.016-1.132-1.016H13.37c-.606 0-1.132.472-1.132 1.016 0 .624.508 1.132 1.132 1.132h23.02a1.128 1.128 0 001.132-1.132zM16.88 14.296c-.508 0-1.015.499-1.015 1.016 0 .606.472 1.132 1.016 1.132H32.87c.597 0 1.016-.464 1.016-1.132 0-.5-.383-1.016-1.016-1.016H16.88z"/></g><defs><clipPath id="oa"><path d="M0 0h49.759v50H0z"/></clipPath></defs></svg><svg viewBox="0 0 12 24" id="icon-fb" xmlns="http://www.w3.org/2000/svg"><path d="M3 8H0v4h3v12h5V12h3.6l.4-4H8V6.3C8 5.4 8.2 5 9.1 5H12V0H8.2C4.6 0 3 1.6 3 4.6V8z"/></svg><svg viewBox="0 0 20 20" id="icon-info" xmlns="http://www.w3.org/2000/svg"><path d="M.5 10C.5 4.76 4.743.5 9.953.5 15.219.5 19.5 4.764 19.5 10c0 5.238-4.262 9.5-9.5 9.5S.5 15.238.5 10zm1 0c0 4.687 3.813 8.5 8.5 8.5 4.687 0 8.5-3.813 8.5-8.5 0-4.69-3.836-8.5-8.547-8.5C5.288 1.5 1.5 5.316 1.5 10z"/><path d="M9.5 5.5h1v6h-1v-6zm0 8h1v1h-1v-1z"/></svg><svg viewBox="0 0 42 49" id="icon-legalization" xmlns="http://www.w3.org/2000/svg"><path d="M23 .583v13.75a4.584 4.584 0 004.583 4.586h13.75v22.92a4.583 4.583 0 01-4.583 4.582H16.125V38.01A10.312 10.312 0 004.667 21.8V5.168A4.583 4.583 0 019.25.583H23zm3.438 1.146v12.604a1.146 1.146 0 001.145 1.146h12.605L26.438 1.73zM16.124 31.526a8.022 8.022 0 01-15.43 3.069 8.02 8.02 0 1115.431-3.07zM2.375 40.1v6.976a1.627 1.627 0 002.777 1.153l2.952-2.952 2.952 2.952a1.627 1.627 0 002.777-1.153V40.1a10.264 10.264 0 01-5.729 1.737A10.258 10.258 0 012.375 40.1z"/></svg><svg viewBox="0 0 40 40" id="icon-minus" xmlns="http://www.w3.org/2000/svg"><path d="M8.333 20h23.334"/><rect x=".35" y=".35" width="39.3" height="39.3" rx="1.65"/></svg><svg viewBox="0 0 13 13" id="icon-search" xmlns="http://www.w3.org/2000/svg"><path fill-rule="evenodd" clip-rule="evenodd" d="M5.958 2.031a3.927 3.927 0 100 7.854 3.927 3.927 0 000-7.854zm-4.74 3.927a4.74 4.74 0 119.48 0 4.74 4.74 0 01-9.48 0z"/><path fill-rule="evenodd" clip-rule="evenodd" d="M8.731 8.731a.406.406 0 01.575 0l2.356 2.357a.406.406 0 01-.574.574L8.73 9.306a.406.406 0 010-.575z"/></svg><svg viewBox="0 0 16 28" id="icon-slider-arrow" xmlns="http://www.w3.org/2000/svg"><path fill-rule="evenodd" clip-rule="evenodd" d="M1.043.793a1 1 0 011.414 0l12.5 12.5a1 1 0 010 1.414l-12.5 12.5a1 1 0 01-1.414-1.414L12.836 14 1.043 2.207a1 1 0 010-1.414z"/></svg><svg viewBox="0 0 50 50" id="icon-stamp" xmlns="http://www.w3.org/2000/svg"><g clip-path="url(#va)"><path d="M35.549 42.36H9.2c-1.207 0-2.2.982-2.2 2.201V47.8c0 1.218.993 2.2 2.2 2.2h26.338c1.207 0 2.2-.993 2.211-2.2v-3.24c0-1.219-.982-2.2-2.2-2.2zm.124 2.201V47.8a.125.125 0 01-.124.124H9.2a.125.125 0 01-.124-.124v-3.24c0-.068.057-.124.124-.124h26.35c.068 0 .124.056.124.124zM42.76 5.53a9.846 9.846 0 00-5.7-5 9.832 9.832 0 00-7.56.497 9.82 9.82 0 00-4.998 5.687 22.906 22.906 0 00-1.219 6.522l-.418 10.235-2.087-.71a4.358 4.358 0 00-3.385.225 4.464 4.464 0 00-2.246 2.55l-.203.598a4.448 4.448 0 002.223 5.405l-.474 1.41a1.71 1.71 0 001.072 2.166l13.496 4.594c.17.056.35.09.553.09h.7l-.215-.068c.52-.157.948-.553 1.128-1.094l.486-1.422a4.323 4.323 0 002.821-.372 4.464 4.464 0 002.245-2.55l.203-.599a4.358 4.358 0 00-.225-3.385 4.463 4.463 0 00-2.55-2.245l-2.088-.711 5.913-8.362a23.21 23.21 0 003.013-5.913 9.805 9.805 0 00-.486-7.549zM31.937 36.582l-.35 1.05-12.796-4.356.35-1.05 12.796 4.356zm6.601-18.788l-6.263 8.87-7.346-2.506.452-10.844c.079-2.02.451-4.006 1.106-5.935a7.715 7.715 0 013.95-4.491 7.73 7.73 0 015.968-.384 7.715 7.715 0 014.492 3.95 7.781 7.781 0 01.394 5.969 21.582 21.582 0 01-2.753 5.371zM19.356 24.6c.26 0 .52.046.756.125l15.629 5.314a2.34 2.34 0 011.354 1.185c.282.564.316 1.208.113 1.806l-.203.598a2.339 2.339 0 01-1.185 1.354 2.334 2.334 0 01-1.806.113L18.397 29.78a2.348 2.348 0 01-1.467-2.99l.203-.599a2.339 2.339 0 011.185-1.354 2.37 2.37 0 011.038-.237z"/></g><defs><clipPath id="va"><path transform="translate(7)" d="M0 0h36.786v50H0z"/></clipPath></defs></svg><svg viewBox="0 0 24 20" id="icon-twitter" xmlns="http://www.w3.org/2000/svg"><path d="M7.548 19.2c9.057 0 14.01-7.386 14.01-13.79 0-.21-.005-.42-.014-.627A9.926 9.926 0 0024 2.273a9.94 9.94 0 01-2.828.763A4.879 4.879 0 0023.338.355 9.97 9.97 0 0120.21 1.53 4.955 4.955 0 0016.617 0c-2.72 0-4.925 2.17-4.925 4.846 0 .38.043.75.128 1.106A14.055 14.055 0 011.67.887a4.777 4.777 0 00-.667 2.437c0 1.681.87 3.166 2.192 4.034a4.947 4.947 0 01-2.23-.606l-.001.062c0 2.347 1.697 4.307 3.95 4.751a5.006 5.006 0 01-2.224.084c.627 1.925 2.445 3.327 4.6 3.366a9.978 9.978 0 01-6.115 2.075c-.397 0-.79-.022-1.175-.067A14.1 14.1 0 007.548 19.2"/></svg><svg viewBox="0 0 24 24" id="icon-vk" xmlns="http://www.w3.org/2000/svg"><path d="M13.072 19.747C4.872 19.747.195 13.82 0 3.957h4.107c.135 7.24 3.163 10.306 5.562 10.938V3.958h3.867V10.2c2.37-.27 4.857-3.114 5.697-6.243h3.868a12.389 12.389 0 01-1.853 4.514 11.69 11.69 0 01-3.41 3.357 11.96 11.96 0 013.887 3.262A12.741 12.741 0 0124 19.747h-4.257a7.871 7.871 0 00-2.296-3.809 7.23 7.23 0 00-3.91-1.834v5.643h-.465z"/></svg></svg>